M48
; DRILL file {KiCad (5.1.9)-1} date 07/08/21 16:45:55
; FORMAT={-:-/ absolute / inch / decimal}
; #@! TF.CreationDate,2021-07-08T16:45:55-05:00
; #@! TF.GenerationSoftware,Kicad,Pcbnew,(5.1.9)-1
; #@! TF.FileFunction,Plated,1,2,PTH
FMAT,2
INCH
T1C0.0079
T2C0.0118
T3C0.0157
T4C0.0350
T5C0.0394
T6C0.0433
T7C0.0512
T8C0.1180
%
G90
G05
T1
X6.36Y-3.94
T2
X3.82Y-3.375
X3.82Y-3.415
X3.82Y-3.455
X3.82Y-3.495
X3.92Y-5.085
X3.92Y-5.125
X3.965Y-5.085
X3.965Y-5.125
X4.06Y-4.295
X4.06Y-4.335
X4.06Y-4.375
X4.06Y-4.415
X4.645Y-4.205
X4.65Y-4.11
X4.76Y-4.02
X4.94Y-4.2
X4.94Y-4.245
X4.967Y-4.574
X4.969Y-4.523
X4.98Y-3.98
X4.985Y-4.2
X4.985Y-4.245
X5.005Y-4.705
X5.005Y-4.745
X5.04Y-4.705
X5.04Y-4.745
X5.085Y-4.16
X5.154Y-4.5225
X5.186Y-4.542
X5.4155Y-4.704
X5.425Y-4.06
X5.425Y-4.15
X5.44Y-3.645
X5.445Y-4.19
X5.4505Y-4.671
X5.48Y-3.645
X5.52Y-3.645
X5.565Y-3.645
X5.605Y-3.645
X5.615Y-4.065
X5.645Y-4.095
X5.645Y-3.645
X5.675Y-4.125
X5.785Y-4.925
X5.79Y-4.685
X5.79Y-4.725
X5.8095Y-4.401
X5.825Y-4.925
X5.835Y-4.685
X5.835Y-4.725
X5.865Y-4.925
X5.9005Y-4.1035
X5.905Y-4.925
X5.92Y-3.4
X5.96Y-3.4
X6.0Y-3.4
X6.04Y-3.4
X6.07Y-4.11
X6.08Y-3.4
X6.09Y-3.89
X6.115Y-4.11
X6.13Y-3.89
X6.165Y-4.11
X6.17Y-3.89
X6.21Y-3.89
X6.21Y-4.11
X6.65Y-4.48
X6.685Y-4.51
X6.715Y-4.54
X6.745Y-4.57
X7.085Y-3.16
X7.125Y-3.16
X7.165Y-3.16
X7.205Y-3.16
X7.245Y-3.16
X7.351Y-3.776
X7.3535Y-3.997
X7.3885Y-4.429
X7.39Y-4.705
X7.404Y-4.647
X7.445Y-4.065
X7.55Y-4.54
X7.595Y-4.54
X7.64Y-4.54
X7.685Y-4.54
T3
X3.97Y-3.56
X4.17Y-4.595
X4.59Y-4.31
X5.105Y-4.905
X5.285Y-4.665
X5.92Y-4.76
X6.21Y-4.45
X6.59Y-3.75
X6.9Y-3.56
X7.381Y-3.5805
X7.4265Y-3.4565
T4
X3.7847Y-3.685
X3.7847Y-3.785
X3.7847Y-4.28
X3.7847Y-4.38
X3.8847Y-3.635
X3.8847Y-3.735
X3.8847Y-4.23
X3.8847Y-4.33
T5
X4.1155Y-5.124
X4.2155Y-5.124
X4.3155Y-5.124
X4.4155Y-5.124
X4.5155Y-5.124
X4.6155Y-5.124
X4.7995Y-4.5425
X4.7995Y-4.6425
X4.7995Y-4.7425
X5.2215Y-4.9325
X5.2217Y-5.0329
X5.2217Y-5.1329
X5.3215Y-4.9325
X5.3217Y-5.0329
X5.3217Y-5.1329
X5.4217Y-5.0329
X5.4217Y-5.1329
X5.5217Y-5.0329
X5.5217Y-5.1329
X5.6217Y-5.0329
X5.6217Y-5.1329
X5.7217Y-5.0329
X5.7217Y-5.1329
X5.8217Y-5.0329
X5.8217Y-5.1329
X5.9217Y-5.0329
X5.9217Y-5.1329
X6.0217Y-5.0329
X6.0217Y-5.1329
X6.1217Y-5.0329
X6.1217Y-5.1329
X6.2217Y-5.0329
X6.2217Y-5.1329
X6.3217Y-5.0329
X6.3217Y-5.1329
X6.4217Y-5.0329
X6.4217Y-5.1329
X6.5217Y-5.0329
X6.5217Y-5.1329
X6.54Y-3.9
X6.6217Y-5.0329
X6.6217Y-5.1329
X6.64Y-3.9
X6.7217Y-5.0329
X6.7217Y-5.1329
X6.74Y-3.9
X6.8217Y-5.0329
X6.8217Y-5.1329
X6.9217Y-5.0329
X6.9217Y-5.1329
X7.0217Y-5.0329
X7.0217Y-5.1329
X7.06Y-3.895
X7.1217Y-5.0329
X7.1217Y-5.1329
X7.16Y-3.895
X7.26Y-3.895
T6
X3.612Y-4.658
X3.612Y-4.8352
X3.8679Y-4.658
X3.8679Y-4.8352
X4.1965Y-4.311
X4.1965Y-4.4882
X4.4524Y-4.311
X4.4524Y-4.4882
T7
X3.993Y-3.238
X4.193Y-3.238
X4.468Y-3.238
X4.668Y-3.238
X4.936Y-3.238
X5.136Y-3.238
X5.425Y-3.238
X5.625Y-3.238
X5.925Y-3.238
X6.125Y-3.238
T8
X6.655Y-3.2769
X6.84Y-3.1588
X6.84Y-3.395
T0
M30
