%TF.GenerationSoftware,KiCad,Pcbnew,(5.1.9)-1*%
%TF.CreationDate,2021-07-08T16:45:59-05:00*%
%TF.ProjectId,RPi_Zero_pHat_Template,5250695f-5a65-4726-9f5f-704861745f54,rev?*%
%TF.SameCoordinates,Original*%
%TF.FileFunction,Legend,Top*%
%TF.FilePolarity,Positive*%
%FSLAX46Y46*%
G04 Gerber Fmt 4.6, Leading zero omitted, Abs format (unit mm)*
G04 Created by KiCad (PCBNEW (5.1.9)-1) date 2021-07-08 16:45:59*
%MOMM*%
%LPD*%
G01*
G04 APERTURE LIST*
%TA.AperFunction,Profile*%
%ADD10C,0.150000*%
%TD*%
%ADD11C,0.100000*%
%ADD12C,0.010000*%
%ADD13C,0.203200*%
%ADD14C,0.127000*%
%ADD15C,0.200000*%
%ADD16C,0.120000*%
%ADD17C,0.300000*%
%ADD18C,0.150000*%
G04 APERTURE END LIST*
D10*
X197750000Y-125046000D02*
X197750000Y-83546000D01*
X189750000Y-83546000D02*
X197750000Y-83546000D01*
X189750000Y-83546000D02*
X189750000Y-75546000D01*
X197750000Y-125046000D02*
X189750000Y-125046000D01*
X189750000Y-133046000D02*
X189750000Y-125046000D01*
X97750000Y-133046000D02*
X189750000Y-133046000D01*
X97750000Y-125046000D02*
X97750000Y-133046000D01*
X97750000Y-125046000D02*
X89750000Y-125046000D01*
X89750000Y-125046000D02*
X89750000Y-83546000D01*
X89750000Y-83546000D02*
X97750000Y-83546000D01*
X97750000Y-75546000D02*
X97750000Y-83546000D01*
X97750000Y-75546000D02*
X189750000Y-75546000D01*
D11*
X186260000Y-132605000D02*
G75*
G03*
X189260000Y-129605000I0J3000000D01*
G01*
X189260000Y-129605000D02*
X189260000Y-105605000D01*
X186260000Y-132605000D02*
X127260000Y-132605000D01*
X124260000Y-129605000D02*
G75*
G03*
X127260000Y-132605000I3000000J0D01*
G01*
X127260000Y-102605000D02*
G75*
G03*
X124260000Y-105605000I0J-3000000D01*
G01*
X189260000Y-105605000D02*
G75*
G03*
X186260000Y-102605000I-3000000J0D01*
G01*
X186260000Y-102605000D02*
X127260000Y-102605000D01*
X124260000Y-129605000D02*
X124260000Y-105605000D01*
D12*
%TO.C,J4*%
G36*
X91326650Y-102997000D02*
G01*
X91326650Y-103875330D01*
X90170000Y-103875330D01*
X90170000Y-102997000D01*
X91326650Y-102997000D01*
G37*
X91326650Y-102997000D02*
X91326650Y-103875330D01*
X90170000Y-103875330D01*
X90170000Y-102997000D01*
X91326650Y-102997000D01*
G36*
X91326650Y-114818670D02*
G01*
X91326650Y-115697000D01*
X90170000Y-115697000D01*
X90170000Y-114818670D01*
X91326650Y-114818670D01*
G37*
X91326650Y-114818670D02*
X91326650Y-115697000D01*
X90170000Y-115697000D01*
X90170000Y-114818670D01*
X91326650Y-114818670D01*
D13*
X102610900Y-110236000D02*
X99695000Y-110236000D01*
X102616000Y-109728000D02*
X99695000Y-109728000D01*
X99695000Y-109728000D02*
X99695000Y-110236000D01*
X97155000Y-108458000D02*
X97155000Y-108966000D01*
X102611000Y-108458000D02*
X97155000Y-108458000D01*
X102616000Y-108966000D02*
X97155000Y-108966000D01*
X99695000Y-107188000D02*
X99695000Y-107696000D01*
X102616000Y-107696000D02*
X99695000Y-107696000D01*
X102616000Y-107188000D02*
X99695000Y-107188000D01*
X102616000Y-111506000D02*
X97155000Y-111506000D01*
X87611000Y-103801000D02*
X102611000Y-103801000D01*
X97155000Y-110998000D02*
X97155000Y-111506000D01*
X102616100Y-111506000D02*
X102610900Y-111506000D01*
X102610900Y-111506000D02*
X102611000Y-114893000D01*
X102616000Y-107696000D02*
X102616000Y-108458000D01*
X87611000Y-114808000D02*
X87611000Y-103886000D01*
X102616000Y-110236000D02*
X102616000Y-110998000D01*
X102616000Y-110998000D02*
X97155000Y-110998000D01*
X102616000Y-108966000D02*
X102616000Y-109728000D01*
X102611000Y-114893000D02*
X87611000Y-114893000D01*
X102616000Y-107188000D02*
X102611000Y-107188000D01*
X102611000Y-103801000D02*
X102611000Y-107188000D01*
D12*
%TO.C,J3*%
G36*
X91326650Y-87884000D02*
G01*
X91326650Y-88762330D01*
X90170000Y-88762330D01*
X90170000Y-87884000D01*
X91326650Y-87884000D01*
G37*
X91326650Y-87884000D02*
X91326650Y-88762330D01*
X90170000Y-88762330D01*
X90170000Y-87884000D01*
X91326650Y-87884000D01*
G36*
X91326650Y-99705670D02*
G01*
X91326650Y-100584000D01*
X90170000Y-100584000D01*
X90170000Y-99705670D01*
X91326650Y-99705670D01*
G37*
X91326650Y-99705670D02*
X91326650Y-100584000D01*
X90170000Y-100584000D01*
X90170000Y-99705670D01*
X91326650Y-99705670D01*
D13*
X102610900Y-95123000D02*
X99695000Y-95123000D01*
X102616000Y-94615000D02*
X99695000Y-94615000D01*
X99695000Y-94615000D02*
X99695000Y-95123000D01*
X97155000Y-93345000D02*
X97155000Y-93853000D01*
X102611000Y-93345000D02*
X97155000Y-93345000D01*
X102616000Y-93853000D02*
X97155000Y-93853000D01*
X99695000Y-92075000D02*
X99695000Y-92583000D01*
X102616000Y-92583000D02*
X99695000Y-92583000D01*
X102616000Y-92075000D02*
X99695000Y-92075000D01*
X102616000Y-96393000D02*
X97155000Y-96393000D01*
X87611000Y-88688000D02*
X102611000Y-88688000D01*
X97155000Y-95885000D02*
X97155000Y-96393000D01*
X102616100Y-96393000D02*
X102610900Y-96393000D01*
X102610900Y-96393000D02*
X102611000Y-99780000D01*
X102616000Y-92583000D02*
X102616000Y-93345000D01*
X87611000Y-99695000D02*
X87611000Y-88773000D01*
X102616000Y-95123000D02*
X102616000Y-95885000D01*
X102616000Y-95885000D02*
X97155000Y-95885000D01*
X102616000Y-93853000D02*
X102616000Y-94615000D01*
X102611000Y-99780000D02*
X87611000Y-99780000D01*
X102616000Y-92075000D02*
X102611000Y-92075000D01*
X102611000Y-88688000D02*
X102611000Y-92075000D01*
D14*
%TO.C,U8*%
X106387000Y-96493000D02*
X111037000Y-96493000D01*
X106387000Y-89943000D02*
X111037000Y-89943000D01*
D15*
X103857000Y-90278000D02*
G75*
G03*
X103857000Y-90278000I-100000J0D01*
G01*
D16*
%TO.C,R3*%
X155413064Y-90064000D02*
X153958936Y-90064000D01*
X155413064Y-88244000D02*
X153958936Y-88244000D01*
%TO.C,J10*%
X118563700Y-131479600D02*
X118563700Y-128819600D01*
X105803700Y-131479600D02*
X118563700Y-131479600D01*
X105803700Y-128819600D02*
X118563700Y-128819600D01*
X105803700Y-131479600D02*
X105803700Y-128819600D01*
X104533700Y-131479600D02*
X103203700Y-131479600D01*
X103203700Y-131479600D02*
X103203700Y-130149600D01*
%TO.C,L2*%
X139989779Y-105031000D02*
X139664221Y-105031000D01*
X139989779Y-104011000D02*
X139664221Y-104011000D01*
%TO.C,L1*%
X139689721Y-102233000D02*
X140015279Y-102233000D01*
X139689721Y-103253000D02*
X140015279Y-103253000D01*
%TO.C,C10*%
X162034000Y-109964000D02*
X162034000Y-109264000D01*
X162034000Y-106444000D02*
X162034000Y-107144000D01*
X159403437Y-106444000D02*
X162034000Y-106444000D01*
X159403437Y-109964000D02*
X162034000Y-109964000D01*
X158703437Y-107144000D02*
X159403437Y-106444000D01*
X158703437Y-109264000D02*
X159403437Y-109964000D01*
X157899000Y-106769000D02*
X158274000Y-106769000D01*
X158086500Y-106581500D02*
X158086500Y-106956500D01*
%TO.C,C9*%
X178544000Y-116568000D02*
X178544000Y-115868000D01*
X178544000Y-113048000D02*
X178544000Y-113748000D01*
X175913437Y-113048000D02*
X178544000Y-113048000D01*
X175913437Y-116568000D02*
X178544000Y-116568000D01*
X175213437Y-113748000D02*
X175913437Y-113048000D01*
X175213437Y-115868000D02*
X175913437Y-116568000D01*
X174409000Y-113373000D02*
X174784000Y-113373000D01*
X174596500Y-113185500D02*
X174596500Y-113560500D01*
%TO.C,C3*%
X167920000Y-105944000D02*
X167920000Y-107144000D01*
X167920000Y-110464000D02*
X167920000Y-109264000D01*
X171375563Y-110464000D02*
X167920000Y-110464000D01*
X171375563Y-105944000D02*
X167920000Y-105944000D01*
X172440000Y-107008437D02*
X172440000Y-107144000D01*
X172440000Y-109399563D02*
X172440000Y-109264000D01*
X172440000Y-109399563D02*
X171375563Y-110464000D01*
X172440000Y-107008437D02*
X171375563Y-105944000D01*
X173180000Y-109764000D02*
X172680000Y-109764000D01*
X172930000Y-110014000D02*
X172930000Y-109514000D01*
%TO.C,C2*%
X176302000Y-106325000D02*
X176302000Y-107525000D01*
X176302000Y-110845000D02*
X176302000Y-109645000D01*
X179757563Y-110845000D02*
X176302000Y-110845000D01*
X179757563Y-106325000D02*
X176302000Y-106325000D01*
X180822000Y-107389437D02*
X180822000Y-107525000D01*
X180822000Y-109780563D02*
X180822000Y-109645000D01*
X180822000Y-109780563D02*
X179757563Y-110845000D01*
X180822000Y-107389437D02*
X179757563Y-106325000D01*
X181562000Y-110145000D02*
X181062000Y-110145000D01*
X181312000Y-110395000D02*
X181312000Y-109895000D01*
%TO.C,SW2*%
X98494800Y-121313200D02*
X98494800Y-119813200D01*
X97244800Y-117313200D02*
X92744800Y-117313200D01*
X91494800Y-119813200D02*
X91494800Y-121313200D01*
X92744800Y-123813200D02*
X97244800Y-123813200D01*
%TO.C,J11*%
X131296100Y-126615500D02*
X131296100Y-125285500D01*
X132626100Y-126615500D02*
X131296100Y-126615500D01*
X133896100Y-126615500D02*
X133896100Y-123955500D01*
X133896100Y-123955500D02*
X136496100Y-123955500D01*
X133896100Y-126615500D02*
X136496100Y-126615500D01*
X136496100Y-126615500D02*
X136496100Y-123955500D01*
%TO.C,C1*%
X129719400Y-117797252D02*
X129719400Y-117274748D01*
X131189400Y-117797252D02*
X131189400Y-117274748D01*
D11*
%TO.C,Q2*%
X117222000Y-94679000D02*
X117522000Y-94679000D01*
X117222000Y-95054000D02*
X117222000Y-94679000D01*
X120522000Y-94679000D02*
X120522000Y-95129000D01*
X120222000Y-94679000D02*
X120522000Y-94679000D01*
X120297000Y-94679000D02*
X120172000Y-94679000D01*
X120522000Y-96329000D02*
X120172000Y-96329000D01*
X120522000Y-95854000D02*
X120522000Y-96329000D01*
X117547000Y-96329000D02*
X117547000Y-97104000D01*
X117497000Y-96329000D02*
X117547000Y-96329000D01*
X117222000Y-95954000D02*
X117497000Y-96329000D01*
X117222000Y-95679000D02*
X117222000Y-95954000D01*
D16*
%TO.C,D2*%
X125124000Y-88266000D02*
X130524000Y-88266000D01*
X125124000Y-91566000D02*
X130524000Y-91566000D01*
X125124000Y-88266000D02*
X125124000Y-91566000D01*
%TO.C,D1*%
X113980000Y-88266000D02*
X119380000Y-88266000D01*
X113980000Y-91566000D02*
X119380000Y-91566000D01*
X113980000Y-88266000D02*
X113980000Y-91566000D01*
D11*
%TO.C,Q3*%
X128906000Y-94679000D02*
X129206000Y-94679000D01*
X128906000Y-95054000D02*
X128906000Y-94679000D01*
X132206000Y-94679000D02*
X132206000Y-95129000D01*
X131906000Y-94679000D02*
X132206000Y-94679000D01*
X131981000Y-94679000D02*
X131856000Y-94679000D01*
X132206000Y-96329000D02*
X131856000Y-96329000D01*
X132206000Y-95854000D02*
X132206000Y-96329000D01*
X129231000Y-96329000D02*
X129231000Y-97104000D01*
X129181000Y-96329000D02*
X129231000Y-96329000D01*
X128906000Y-95954000D02*
X129181000Y-96329000D01*
X128906000Y-95679000D02*
X128906000Y-95954000D01*
D16*
%TO.C,D3*%
X197313500Y-84003000D02*
X194628500Y-84003000D01*
X197313500Y-85923000D02*
X197313500Y-84003000D01*
X194628500Y-85923000D02*
X197313500Y-85923000D01*
%TO.C,J12*%
X123237300Y-114049500D02*
X120577300Y-114049500D01*
X123237300Y-119189500D02*
X123237300Y-114049500D01*
X120577300Y-119189500D02*
X120577300Y-114049500D01*
X123237300Y-119189500D02*
X120577300Y-119189500D01*
X123237300Y-120459500D02*
X123237300Y-121789500D01*
X123237300Y-121789500D02*
X121907300Y-121789500D01*
%TO.C,J2*%
X182220000Y-126505000D02*
X182220000Y-127835000D01*
X180890000Y-126505000D02*
X182220000Y-126505000D01*
X182220000Y-129105000D02*
X182220000Y-131705000D01*
X179620000Y-129105000D02*
X182220000Y-129105000D01*
X179620000Y-126505000D02*
X179620000Y-129105000D01*
X182220000Y-131705000D02*
X131300000Y-131705000D01*
X179620000Y-126505000D02*
X131300000Y-126505000D01*
X131300000Y-126505000D02*
X131300000Y-131705000D01*
%TO.C,SW1*%
X113341100Y-112499400D02*
X113341100Y-110999400D01*
X112091100Y-108499400D02*
X107591100Y-108499400D01*
X106341100Y-110999400D02*
X106341100Y-112499400D01*
X107591100Y-114999400D02*
X112091100Y-114999400D01*
%TO.C,C7*%
X141797100Y-106788852D02*
X141797100Y-106266348D01*
X143267100Y-106788852D02*
X143267100Y-106266348D01*
%TO.C,C11*%
X143745852Y-120089600D02*
X143223348Y-120089600D01*
X143745852Y-118619600D02*
X143223348Y-118619600D01*
%TO.C,C5*%
X143682352Y-117905200D02*
X143159848Y-117905200D01*
X143682352Y-116435200D02*
X143159848Y-116435200D01*
%TO.C,C4*%
X131891100Y-117799752D02*
X131891100Y-117277248D01*
X133361100Y-117799752D02*
X133361100Y-117277248D01*
%TO.C,R19*%
X115266800Y-112813736D02*
X115266800Y-113267864D01*
X116736800Y-112813736D02*
X116736800Y-113267864D01*
%TO.C,C8*%
X137069500Y-103375052D02*
X137069500Y-102852548D01*
X135599500Y-103375052D02*
X135599500Y-102852548D01*
%TO.C,C6*%
X134961300Y-103375052D02*
X134961300Y-102852548D01*
X133491300Y-103375052D02*
X133491300Y-102852548D01*
%TO.C,J8*%
X127054400Y-82245200D02*
G75*
G03*
X127054400Y-82245200I-1680000J0D01*
G01*
X133054400Y-78145200D02*
X122774400Y-78145200D01*
X133054400Y-79645200D02*
X122774400Y-79645200D01*
X133054400Y-84546200D02*
X122774400Y-84546200D01*
X133054400Y-87506200D02*
X122774400Y-87506200D01*
X133054400Y-77585200D02*
X122774400Y-77585200D01*
X133054400Y-87506200D02*
X133054400Y-77585200D01*
X122774400Y-87506200D02*
X122774400Y-77585200D01*
X124099400Y-83314200D02*
X124146400Y-83268200D01*
X126408400Y-81006200D02*
X126443400Y-80971200D01*
X124304400Y-83520200D02*
X124339400Y-83484200D01*
X126601400Y-81222200D02*
X126648400Y-81176200D01*
X133294400Y-78085200D02*
X133294400Y-77345200D01*
X133294400Y-77345200D02*
X132794400Y-77345200D01*
X130425595Y-80564947D02*
G75*
G02*
X131138400Y-80710200I28805J-1680253D01*
G01*
X131989826Y-81562158D02*
G75*
G02*
X131989400Y-82929200I-1535426J-683042D01*
G01*
X131137442Y-83780626D02*
G75*
G02*
X129770400Y-83780200I-683042J1535426D01*
G01*
X128918974Y-82928242D02*
G75*
G02*
X128919400Y-81561200I1535426J683042D01*
G01*
X129771082Y-80710444D02*
G75*
G02*
X130454400Y-80565200I683318J-1534756D01*
G01*
%TO.C,J7*%
X115167200Y-82245200D02*
G75*
G03*
X115167200Y-82245200I-1680000J0D01*
G01*
X121167200Y-78145200D02*
X110887200Y-78145200D01*
X121167200Y-79645200D02*
X110887200Y-79645200D01*
X121167200Y-84546200D02*
X110887200Y-84546200D01*
X121167200Y-87506200D02*
X110887200Y-87506200D01*
X121167200Y-77585200D02*
X110887200Y-77585200D01*
X121167200Y-87506200D02*
X121167200Y-77585200D01*
X110887200Y-87506200D02*
X110887200Y-77585200D01*
X112212200Y-83314200D02*
X112259200Y-83268200D01*
X114521200Y-81006200D02*
X114556200Y-80971200D01*
X112417200Y-83520200D02*
X112452200Y-83484200D01*
X114714200Y-81222200D02*
X114761200Y-81176200D01*
X121407200Y-78085200D02*
X121407200Y-77345200D01*
X121407200Y-77345200D02*
X120907200Y-77345200D01*
X118538395Y-80564947D02*
G75*
G02*
X119251200Y-80710200I28805J-1680253D01*
G01*
X120102626Y-81562158D02*
G75*
G02*
X120102200Y-82929200I-1535426J-683042D01*
G01*
X119250242Y-83780626D02*
G75*
G02*
X117883200Y-83780200I-683042J1535426D01*
G01*
X117031774Y-82928242D02*
G75*
G02*
X117032200Y-81561200I1535426J683042D01*
G01*
X117883882Y-80710444D02*
G75*
G02*
X118567200Y-80565200I683318J-1534756D01*
G01*
%TO.C,R18*%
X99444436Y-101373000D02*
X99898564Y-101373000D01*
X99444436Y-102843000D02*
X99898564Y-102843000D01*
%TO.C,R17*%
X191669936Y-122798000D02*
X192124064Y-122798000D01*
X191669936Y-124268000D02*
X192124064Y-124268000D01*
%TO.C,D10*%
X194628500Y-124493000D02*
X197313500Y-124493000D01*
X197313500Y-124493000D02*
X197313500Y-122573000D01*
X197313500Y-122573000D02*
X194628500Y-122573000D01*
%TO.C,R16*%
X191669936Y-117288000D02*
X192124064Y-117288000D01*
X191669936Y-118758000D02*
X192124064Y-118758000D01*
%TO.C,D9*%
X194628500Y-118983000D02*
X197313500Y-118983000D01*
X197313500Y-118983000D02*
X197313500Y-117063000D01*
X197313500Y-117063000D02*
X194628500Y-117063000D01*
%TO.C,R15*%
X191669936Y-111778000D02*
X192124064Y-111778000D01*
X191669936Y-113248000D02*
X192124064Y-113248000D01*
%TO.C,D8*%
X194628500Y-113473000D02*
X197313500Y-113473000D01*
X197313500Y-113473000D02*
X197313500Y-111553000D01*
X197313500Y-111553000D02*
X194628500Y-111553000D01*
%TO.C,R14*%
X191669936Y-106268000D02*
X192124064Y-106268000D01*
X191669936Y-107738000D02*
X192124064Y-107738000D01*
%TO.C,D7*%
X194628500Y-107963000D02*
X197313500Y-107963000D01*
X197313500Y-107963000D02*
X197313500Y-106043000D01*
X197313500Y-106043000D02*
X194628500Y-106043000D01*
%TO.C,R13*%
X131291064Y-99541000D02*
X130836936Y-99541000D01*
X131291064Y-98071000D02*
X130836936Y-98071000D01*
%TO.C,R12*%
X119503564Y-99541000D02*
X119049436Y-99541000D01*
X119503564Y-98071000D02*
X119049436Y-98071000D01*
%TO.C,R11*%
X191669936Y-102228000D02*
X192124064Y-102228000D01*
X191669936Y-100758000D02*
X192124064Y-100758000D01*
%TO.C,D6*%
X197313500Y-100533000D02*
X194628500Y-100533000D01*
X197313500Y-102453000D02*
X197313500Y-100533000D01*
X194628500Y-102453000D02*
X197313500Y-102453000D01*
D17*
%TO.C,U5*%
X153202000Y-102474000D02*
G75*
G03*
X153202000Y-102474000I-100000J0D01*
G01*
D14*
X159957000Y-99924000D02*
X159957000Y-93624000D01*
X159952000Y-99949000D02*
X159352000Y-99949000D01*
X159952000Y-93599000D02*
X159352000Y-93599000D01*
X151447000Y-99949000D02*
X152052000Y-99949000D01*
X151447000Y-93599000D02*
X151447000Y-99949000D01*
X152052000Y-93599000D02*
X151447000Y-93599000D01*
D16*
%TO.C,Q1*%
X165994000Y-84766000D02*
X165994000Y-85866000D01*
X166264000Y-84766000D02*
X165994000Y-84766000D01*
X166264000Y-83266000D02*
X166264000Y-84766000D01*
X159634000Y-84766000D02*
X159634000Y-87596000D01*
X159364000Y-84766000D02*
X159634000Y-84766000D01*
X159364000Y-83266000D02*
X159364000Y-84766000D01*
%TO.C,R10*%
X191669936Y-95248000D02*
X192124064Y-95248000D01*
X191669936Y-96718000D02*
X192124064Y-96718000D01*
%TO.C,D5*%
X194628500Y-96943000D02*
X197313500Y-96943000D01*
X197313500Y-96943000D02*
X197313500Y-95023000D01*
X197313500Y-95023000D02*
X194628500Y-95023000D01*
%TO.C,R9*%
X192124064Y-91208000D02*
X191669936Y-91208000D01*
X192124064Y-89738000D02*
X191669936Y-89738000D01*
%TO.C,R8*%
X192124064Y-85698000D02*
X191669936Y-85698000D01*
X192124064Y-84228000D02*
X191669936Y-84228000D01*
%TO.C,D4*%
X194628500Y-91433000D02*
X197313500Y-91433000D01*
X197313500Y-91433000D02*
X197313500Y-89513000D01*
X197313500Y-89513000D02*
X194628500Y-89513000D01*
%TO.C,U1*%
X134566000Y-115301000D02*
X134566000Y-115751000D01*
X134566000Y-115751000D02*
X135016000Y-115751000D01*
X134566000Y-108981000D02*
X134566000Y-108531000D01*
X134566000Y-108531000D02*
X135016000Y-108531000D01*
X141786000Y-115301000D02*
X141786000Y-115751000D01*
X141786000Y-115751000D02*
X141336000Y-115751000D01*
X141786000Y-108981000D02*
X141786000Y-108531000D01*
X141786000Y-108531000D02*
X141336000Y-108531000D01*
X141336000Y-108531000D02*
X141336000Y-107241000D01*
%TO.C,R2*%
X153541400Y-112817536D02*
X153541400Y-113271664D01*
X152071400Y-112817536D02*
X152071400Y-113271664D01*
%TO.C,R1*%
X151484000Y-112815636D02*
X151484000Y-113269764D01*
X150014000Y-112815636D02*
X150014000Y-113269764D01*
%TO.C,C12*%
X143905300Y-107464452D02*
X143905300Y-106941948D01*
X145375300Y-107464452D02*
X145375300Y-106941948D01*
%TO.C,R7*%
X112749000Y-100507436D02*
X112749000Y-100961564D01*
X111279000Y-100507436D02*
X111279000Y-100961564D01*
%TO.C,R6*%
X126211064Y-98071000D02*
X125756936Y-98071000D01*
X126211064Y-99541000D02*
X125756936Y-99541000D01*
%TO.C,R5*%
X115543064Y-98071000D02*
X115088936Y-98071000D01*
X115543064Y-99541000D02*
X115088936Y-99541000D01*
%TO.C,J9*%
X109342200Y-77345200D02*
X108842200Y-77345200D01*
X109342200Y-78085200D02*
X109342200Y-77345200D01*
X102649200Y-81222200D02*
X102696200Y-81176200D01*
X100352200Y-83520200D02*
X100387200Y-83484200D01*
X102456200Y-81006200D02*
X102491200Y-80971200D01*
X100147200Y-83314200D02*
X100194200Y-83268200D01*
X98822200Y-87506200D02*
X98822200Y-77585200D01*
X109102200Y-87506200D02*
X109102200Y-77585200D01*
X109102200Y-77585200D02*
X98822200Y-77585200D01*
X109102200Y-87506200D02*
X98822200Y-87506200D01*
X109102200Y-84546200D02*
X98822200Y-84546200D01*
X109102200Y-79645200D02*
X98822200Y-79645200D01*
X109102200Y-78145200D02*
X98822200Y-78145200D01*
X103102200Y-82245200D02*
G75*
G03*
X103102200Y-82245200I-1680000J0D01*
G01*
X106473395Y-80564947D02*
G75*
G02*
X107186200Y-80710200I28805J-1680253D01*
G01*
X108037626Y-81562158D02*
G75*
G02*
X108037200Y-82929200I-1535426J-683042D01*
G01*
X107185242Y-83780626D02*
G75*
G02*
X105818200Y-83780200I-683042J1535426D01*
G01*
X104966774Y-82928242D02*
G75*
G02*
X104967200Y-81561200I1535426J683042D01*
G01*
X105818882Y-80710444D02*
G75*
G02*
X106502200Y-80565200I683318J-1534756D01*
G01*
%TO.C,J6*%
X145715000Y-77345200D02*
X145215000Y-77345200D01*
X145715000Y-78085200D02*
X145715000Y-77345200D01*
X139022000Y-81222200D02*
X139069000Y-81176200D01*
X136725000Y-83520200D02*
X136760000Y-83484200D01*
X138829000Y-81006200D02*
X138864000Y-80971200D01*
X136520000Y-83314200D02*
X136567000Y-83268200D01*
X135195000Y-87506200D02*
X135195000Y-77585200D01*
X145475000Y-87506200D02*
X145475000Y-77585200D01*
X145475000Y-77585200D02*
X135195000Y-77585200D01*
X145475000Y-87506200D02*
X135195000Y-87506200D01*
X145475000Y-84546200D02*
X135195000Y-84546200D01*
X145475000Y-79645200D02*
X135195000Y-79645200D01*
X145475000Y-78145200D02*
X135195000Y-78145200D01*
X139475000Y-82245200D02*
G75*
G03*
X139475000Y-82245200I-1680000J0D01*
G01*
X142846195Y-80564947D02*
G75*
G02*
X143559000Y-80710200I28805J-1680253D01*
G01*
X144410426Y-81562158D02*
G75*
G02*
X144410000Y-82929200I-1535426J-683042D01*
G01*
X143558042Y-83780626D02*
G75*
G02*
X142191000Y-83780200I-683042J1535426D01*
G01*
X141339574Y-82928242D02*
G75*
G02*
X141340000Y-81561200I1535426J683042D01*
G01*
X142191682Y-80710444D02*
G75*
G02*
X142875000Y-80565200I683318J-1534756D01*
G01*
%TO.C,J5*%
X158415000Y-77345200D02*
X157915000Y-77345200D01*
X158415000Y-78085200D02*
X158415000Y-77345200D01*
X151722000Y-81222200D02*
X151769000Y-81176200D01*
X149425000Y-83520200D02*
X149460000Y-83484200D01*
X151529000Y-81006200D02*
X151564000Y-80971200D01*
X149220000Y-83314200D02*
X149267000Y-83268200D01*
X147895000Y-87506200D02*
X147895000Y-77585200D01*
X158175000Y-87506200D02*
X158175000Y-77585200D01*
X158175000Y-77585200D02*
X147895000Y-77585200D01*
X158175000Y-87506200D02*
X147895000Y-87506200D01*
X158175000Y-84546200D02*
X147895000Y-84546200D01*
X158175000Y-79645200D02*
X147895000Y-79645200D01*
X158175000Y-78145200D02*
X147895000Y-78145200D01*
X152175000Y-82245200D02*
G75*
G03*
X152175000Y-82245200I-1680000J0D01*
G01*
X155546195Y-80564947D02*
G75*
G02*
X156259000Y-80710200I28805J-1680253D01*
G01*
X157110426Y-81562158D02*
G75*
G02*
X157110000Y-82929200I-1535426J-683042D01*
G01*
X156258042Y-83780626D02*
G75*
G02*
X154891000Y-83780200I-683042J1535426D01*
G01*
X154039574Y-82928242D02*
G75*
G02*
X154040000Y-81561200I1535426J683042D01*
G01*
X154891682Y-80710444D02*
G75*
G02*
X155575000Y-80565200I683318J-1534756D01*
G01*
%TO.C,R4*%
X148967564Y-101776200D02*
X148513436Y-101776200D01*
X148967564Y-100306200D02*
X148513436Y-100306200D01*
D13*
%TO.C,J1*%
X178234340Y-75534520D02*
X169237660Y-75534520D01*
X178234340Y-86233000D02*
X176133760Y-86233000D01*
X178234340Y-75534520D02*
X178234340Y-86233000D01*
X169237660Y-86233000D02*
X169237660Y-85534500D01*
X169237660Y-75534520D02*
X169237660Y-80832960D01*
X169237660Y-86233000D02*
X171338240Y-86233000D01*
D11*
%TO.C,U2*%
X176004000Y-101233000D02*
X176004000Y-100733000D01*
X176004000Y-101233000D02*
X176504000Y-101233000D01*
X187754000Y-101183000D02*
X187254000Y-101183000D01*
X187754000Y-101183000D02*
X187754000Y-100683000D01*
X176004000Y-91983000D02*
X176004000Y-92483000D01*
X176004000Y-91983000D02*
X176504000Y-91983000D01*
X187754000Y-91983000D02*
X187254000Y-91983000D01*
X187754000Y-91983000D02*
X187754000Y-92483000D01*
%TO.C,U3*%
X162796000Y-101360000D02*
X162796000Y-100860000D01*
X162796000Y-101360000D02*
X163296000Y-101360000D01*
X174546000Y-101310000D02*
X174046000Y-101310000D01*
X174546000Y-101310000D02*
X174546000Y-100810000D01*
X162796000Y-92110000D02*
X162796000Y-92610000D01*
X162796000Y-92110000D02*
X163296000Y-92110000D01*
X174546000Y-92110000D02*
X174046000Y-92110000D01*
X174546000Y-92110000D02*
X174546000Y-92610000D01*
%TD*%
%TO.C,J4*%
D18*
X93051380Y-109680333D02*
X93765666Y-109680333D01*
X93908523Y-109727952D01*
X94003761Y-109823190D01*
X94051380Y-109966047D01*
X94051380Y-110061285D01*
X93384714Y-108775571D02*
X94051380Y-108775571D01*
X93003761Y-109013666D02*
X93718047Y-109251761D01*
X93718047Y-108632714D01*
%TO.C,J3*%
X93051380Y-94567333D02*
X93765666Y-94567333D01*
X93908523Y-94614952D01*
X94003761Y-94710190D01*
X94051380Y-94853047D01*
X94051380Y-94948285D01*
X93051380Y-94186380D02*
X93051380Y-93567333D01*
X93432333Y-93900666D01*
X93432333Y-93757809D01*
X93479952Y-93662571D01*
X93527571Y-93614952D01*
X93622809Y-93567333D01*
X93860904Y-93567333D01*
X93956142Y-93614952D01*
X94003761Y-93662571D01*
X94051380Y-93757809D01*
X94051380Y-94043523D01*
X94003761Y-94138761D01*
X93956142Y-94186380D01*
%TO.C,U8*%
X102489095Y-89749380D02*
X102489095Y-90558904D01*
X102536714Y-90654142D01*
X102584333Y-90701761D01*
X102679571Y-90749380D01*
X102870047Y-90749380D01*
X102965285Y-90701761D01*
X103012904Y-90654142D01*
X103060523Y-90558904D01*
X103060523Y-89749380D01*
X103679571Y-90177952D02*
X103584333Y-90130333D01*
X103536714Y-90082714D01*
X103489095Y-89987476D01*
X103489095Y-89939857D01*
X103536714Y-89844619D01*
X103584333Y-89797000D01*
X103679571Y-89749380D01*
X103870047Y-89749380D01*
X103965285Y-89797000D01*
X104012904Y-89844619D01*
X104060523Y-89939857D01*
X104060523Y-89987476D01*
X104012904Y-90082714D01*
X103965285Y-90130333D01*
X103870047Y-90177952D01*
X103679571Y-90177952D01*
X103584333Y-90225571D01*
X103536714Y-90273190D01*
X103489095Y-90368428D01*
X103489095Y-90558904D01*
X103536714Y-90654142D01*
X103584333Y-90701761D01*
X103679571Y-90749380D01*
X103870047Y-90749380D01*
X103965285Y-90701761D01*
X104012904Y-90654142D01*
X104060523Y-90558904D01*
X104060523Y-90368428D01*
X104012904Y-90273190D01*
X103965285Y-90225571D01*
X103870047Y-90177952D01*
%TO.C,R3*%
X157821333Y-90495380D02*
X157488000Y-90019190D01*
X157249904Y-90495380D02*
X157249904Y-89495380D01*
X157630857Y-89495380D01*
X157726095Y-89543000D01*
X157773714Y-89590619D01*
X157821333Y-89685857D01*
X157821333Y-89828714D01*
X157773714Y-89923952D01*
X157726095Y-89971571D01*
X157630857Y-90019190D01*
X157249904Y-90019190D01*
X158154666Y-89495380D02*
X158773714Y-89495380D01*
X158440380Y-89876333D01*
X158583238Y-89876333D01*
X158678476Y-89923952D01*
X158726095Y-89971571D01*
X158773714Y-90066809D01*
X158773714Y-90304904D01*
X158726095Y-90400142D01*
X158678476Y-90447761D01*
X158583238Y-90495380D01*
X158297523Y-90495380D01*
X158202285Y-90447761D01*
X158154666Y-90400142D01*
%TO.C,J10*%
X101656080Y-130959123D02*
X102370366Y-130959123D01*
X102513223Y-131006742D01*
X102608461Y-131101980D01*
X102656080Y-131244838D01*
X102656080Y-131340076D01*
X102656080Y-129959123D02*
X102656080Y-130530552D01*
X102656080Y-130244838D02*
X101656080Y-130244838D01*
X101798938Y-130340076D01*
X101894176Y-130435314D01*
X101941795Y-130530552D01*
X101656080Y-129340076D02*
X101656080Y-129244838D01*
X101703700Y-129149600D01*
X101751319Y-129101980D01*
X101846557Y-129054361D01*
X102037033Y-129006742D01*
X102275128Y-129006742D01*
X102465604Y-129054361D01*
X102560842Y-129101980D01*
X102608461Y-129149600D01*
X102656080Y-129244838D01*
X102656080Y-129340076D01*
X102608461Y-129435314D01*
X102560842Y-129482933D01*
X102465604Y-129530552D01*
X102275128Y-129578171D01*
X102037033Y-129578171D01*
X101846557Y-129530552D01*
X101751319Y-129482933D01*
X101703700Y-129435314D01*
X101656080Y-129340076D01*
%TO.C,L2*%
X139533333Y-106403380D02*
X139057142Y-106403380D01*
X139057142Y-105403380D01*
X139819047Y-105498619D02*
X139866666Y-105451000D01*
X139961904Y-105403380D01*
X140200000Y-105403380D01*
X140295238Y-105451000D01*
X140342857Y-105498619D01*
X140390476Y-105593857D01*
X140390476Y-105689095D01*
X140342857Y-105831952D01*
X139771428Y-106403380D01*
X140390476Y-106403380D01*
%TO.C,L1*%
X139685833Y-101765380D02*
X139209642Y-101765380D01*
X139209642Y-100765380D01*
X140542976Y-101765380D02*
X139971547Y-101765380D01*
X140257261Y-101765380D02*
X140257261Y-100765380D01*
X140162023Y-100908238D01*
X140066785Y-101003476D01*
X139971547Y-101051095D01*
%TO.C,C10*%
X159631142Y-105861142D02*
X159583523Y-105908761D01*
X159440666Y-105956380D01*
X159345428Y-105956380D01*
X159202571Y-105908761D01*
X159107333Y-105813523D01*
X159059714Y-105718285D01*
X159012095Y-105527809D01*
X159012095Y-105384952D01*
X159059714Y-105194476D01*
X159107333Y-105099238D01*
X159202571Y-105004000D01*
X159345428Y-104956380D01*
X159440666Y-104956380D01*
X159583523Y-105004000D01*
X159631142Y-105051619D01*
X160583523Y-105956380D02*
X160012095Y-105956380D01*
X160297809Y-105956380D02*
X160297809Y-104956380D01*
X160202571Y-105099238D01*
X160107333Y-105194476D01*
X160012095Y-105242095D01*
X161202571Y-104956380D02*
X161297809Y-104956380D01*
X161393047Y-105004000D01*
X161440666Y-105051619D01*
X161488285Y-105146857D01*
X161535904Y-105337333D01*
X161535904Y-105575428D01*
X161488285Y-105765904D01*
X161440666Y-105861142D01*
X161393047Y-105908761D01*
X161297809Y-105956380D01*
X161202571Y-105956380D01*
X161107333Y-105908761D01*
X161059714Y-105861142D01*
X161012095Y-105765904D01*
X160964476Y-105575428D01*
X160964476Y-105337333D01*
X161012095Y-105146857D01*
X161059714Y-105051619D01*
X161107333Y-105004000D01*
X161202571Y-104956380D01*
%TO.C,C9*%
X176617333Y-112465142D02*
X176569714Y-112512761D01*
X176426857Y-112560380D01*
X176331619Y-112560380D01*
X176188761Y-112512761D01*
X176093523Y-112417523D01*
X176045904Y-112322285D01*
X175998285Y-112131809D01*
X175998285Y-111988952D01*
X176045904Y-111798476D01*
X176093523Y-111703238D01*
X176188761Y-111608000D01*
X176331619Y-111560380D01*
X176426857Y-111560380D01*
X176569714Y-111608000D01*
X176617333Y-111655619D01*
X177093523Y-112560380D02*
X177284000Y-112560380D01*
X177379238Y-112512761D01*
X177426857Y-112465142D01*
X177522095Y-112322285D01*
X177569714Y-112131809D01*
X177569714Y-111750857D01*
X177522095Y-111655619D01*
X177474476Y-111608000D01*
X177379238Y-111560380D01*
X177188761Y-111560380D01*
X177093523Y-111608000D01*
X177045904Y-111655619D01*
X176998285Y-111750857D01*
X176998285Y-111988952D01*
X177045904Y-112084190D01*
X177093523Y-112131809D01*
X177188761Y-112179428D01*
X177379238Y-112179428D01*
X177474476Y-112131809D01*
X177522095Y-112084190D01*
X177569714Y-111988952D01*
%TO.C,C3*%
X170013333Y-111761142D02*
X169965714Y-111808761D01*
X169822857Y-111856380D01*
X169727619Y-111856380D01*
X169584761Y-111808761D01*
X169489523Y-111713523D01*
X169441904Y-111618285D01*
X169394285Y-111427809D01*
X169394285Y-111284952D01*
X169441904Y-111094476D01*
X169489523Y-110999238D01*
X169584761Y-110904000D01*
X169727619Y-110856380D01*
X169822857Y-110856380D01*
X169965714Y-110904000D01*
X170013333Y-110951619D01*
X170346666Y-110856380D02*
X170965714Y-110856380D01*
X170632380Y-111237333D01*
X170775238Y-111237333D01*
X170870476Y-111284952D01*
X170918095Y-111332571D01*
X170965714Y-111427809D01*
X170965714Y-111665904D01*
X170918095Y-111761142D01*
X170870476Y-111808761D01*
X170775238Y-111856380D01*
X170489523Y-111856380D01*
X170394285Y-111808761D01*
X170346666Y-111761142D01*
%TO.C,C2*%
X178395333Y-112142142D02*
X178347714Y-112189761D01*
X178204857Y-112237380D01*
X178109619Y-112237380D01*
X177966761Y-112189761D01*
X177871523Y-112094523D01*
X177823904Y-111999285D01*
X177776285Y-111808809D01*
X177776285Y-111665952D01*
X177823904Y-111475476D01*
X177871523Y-111380238D01*
X177966761Y-111285000D01*
X178109619Y-111237380D01*
X178204857Y-111237380D01*
X178347714Y-111285000D01*
X178395333Y-111332619D01*
X178776285Y-111332619D02*
X178823904Y-111285000D01*
X178919142Y-111237380D01*
X179157238Y-111237380D01*
X179252476Y-111285000D01*
X179300095Y-111332619D01*
X179347714Y-111427857D01*
X179347714Y-111523095D01*
X179300095Y-111665952D01*
X178728666Y-112237380D01*
X179347714Y-112237380D01*
%TO.C,SW2*%
X100393666Y-124483761D02*
X100536523Y-124531380D01*
X100774619Y-124531380D01*
X100869857Y-124483761D01*
X100917476Y-124436142D01*
X100965095Y-124340904D01*
X100965095Y-124245666D01*
X100917476Y-124150428D01*
X100869857Y-124102809D01*
X100774619Y-124055190D01*
X100584142Y-124007571D01*
X100488904Y-123959952D01*
X100441285Y-123912333D01*
X100393666Y-123817095D01*
X100393666Y-123721857D01*
X100441285Y-123626619D01*
X100488904Y-123579000D01*
X100584142Y-123531380D01*
X100822238Y-123531380D01*
X100965095Y-123579000D01*
X101298428Y-123531380D02*
X101536523Y-124531380D01*
X101727000Y-123817095D01*
X101917476Y-124531380D01*
X102155571Y-123531380D01*
X102488904Y-123626619D02*
X102536523Y-123579000D01*
X102631761Y-123531380D01*
X102869857Y-123531380D01*
X102965095Y-123579000D01*
X103012714Y-123626619D01*
X103060333Y-123721857D01*
X103060333Y-123817095D01*
X103012714Y-123959952D01*
X102441285Y-124531380D01*
X103060333Y-124531380D01*
%TO.C,J11*%
X137374380Y-125904523D02*
X138088666Y-125904523D01*
X138231523Y-125952142D01*
X138326761Y-126047380D01*
X138374380Y-126190238D01*
X138374380Y-126285476D01*
X138374380Y-124904523D02*
X138374380Y-125475952D01*
X138374380Y-125190238D02*
X137374380Y-125190238D01*
X137517238Y-125285476D01*
X137612476Y-125380714D01*
X137660095Y-125475952D01*
X138374380Y-123952142D02*
X138374380Y-124523571D01*
X138374380Y-124237857D02*
X137374380Y-124237857D01*
X137517238Y-124333095D01*
X137612476Y-124428333D01*
X137660095Y-124523571D01*
%TO.C,C1*%
X130913142Y-121324666D02*
X130960761Y-121372285D01*
X131008380Y-121515142D01*
X131008380Y-121610380D01*
X130960761Y-121753238D01*
X130865523Y-121848476D01*
X130770285Y-121896095D01*
X130579809Y-121943714D01*
X130436952Y-121943714D01*
X130246476Y-121896095D01*
X130151238Y-121848476D01*
X130056000Y-121753238D01*
X130008380Y-121610380D01*
X130008380Y-121515142D01*
X130056000Y-121372285D01*
X130103619Y-121324666D01*
X131008380Y-120372285D02*
X131008380Y-120943714D01*
X131008380Y-120658000D02*
X130008380Y-120658000D01*
X130151238Y-120753238D01*
X130246476Y-120848476D01*
X130294095Y-120943714D01*
%TO.C,Q2*%
X116752619Y-96615238D02*
X116705000Y-96710476D01*
X116609761Y-96805714D01*
X116466904Y-96948571D01*
X116419285Y-97043809D01*
X116419285Y-97139047D01*
X116657380Y-97091428D02*
X116609761Y-97186666D01*
X116514523Y-97281904D01*
X116324047Y-97329523D01*
X115990714Y-97329523D01*
X115800238Y-97281904D01*
X115705000Y-97186666D01*
X115657380Y-97091428D01*
X115657380Y-96900952D01*
X115705000Y-96805714D01*
X115800238Y-96710476D01*
X115990714Y-96662857D01*
X116324047Y-96662857D01*
X116514523Y-96710476D01*
X116609761Y-96805714D01*
X116657380Y-96900952D01*
X116657380Y-97091428D01*
X115752619Y-96281904D02*
X115705000Y-96234285D01*
X115657380Y-96139047D01*
X115657380Y-95900952D01*
X115705000Y-95805714D01*
X115752619Y-95758095D01*
X115847857Y-95710476D01*
X115943095Y-95710476D01*
X116085952Y-95758095D01*
X116657380Y-96329523D01*
X116657380Y-95710476D01*
%TO.C,D2*%
X125372904Y-92908380D02*
X125372904Y-91908380D01*
X125611000Y-91908380D01*
X125753857Y-91956000D01*
X125849095Y-92051238D01*
X125896714Y-92146476D01*
X125944333Y-92336952D01*
X125944333Y-92479809D01*
X125896714Y-92670285D01*
X125849095Y-92765523D01*
X125753857Y-92860761D01*
X125611000Y-92908380D01*
X125372904Y-92908380D01*
X126325285Y-92003619D02*
X126372904Y-91956000D01*
X126468142Y-91908380D01*
X126706238Y-91908380D01*
X126801476Y-91956000D01*
X126849095Y-92003619D01*
X126896714Y-92098857D01*
X126896714Y-92194095D01*
X126849095Y-92336952D01*
X126277666Y-92908380D01*
X126896714Y-92908380D01*
%TO.C,D1*%
X114323904Y-92908380D02*
X114323904Y-91908380D01*
X114562000Y-91908380D01*
X114704857Y-91956000D01*
X114800095Y-92051238D01*
X114847714Y-92146476D01*
X114895333Y-92336952D01*
X114895333Y-92479809D01*
X114847714Y-92670285D01*
X114800095Y-92765523D01*
X114704857Y-92860761D01*
X114562000Y-92908380D01*
X114323904Y-92908380D01*
X115847714Y-92908380D02*
X115276285Y-92908380D01*
X115562000Y-92908380D02*
X115562000Y-91908380D01*
X115466761Y-92051238D01*
X115371523Y-92146476D01*
X115276285Y-92194095D01*
%TO.C,Q3*%
X128436619Y-96488238D02*
X128389000Y-96583476D01*
X128293761Y-96678714D01*
X128150904Y-96821571D01*
X128103285Y-96916809D01*
X128103285Y-97012047D01*
X128341380Y-96964428D02*
X128293761Y-97059666D01*
X128198523Y-97154904D01*
X128008047Y-97202523D01*
X127674714Y-97202523D01*
X127484238Y-97154904D01*
X127389000Y-97059666D01*
X127341380Y-96964428D01*
X127341380Y-96773952D01*
X127389000Y-96678714D01*
X127484238Y-96583476D01*
X127674714Y-96535857D01*
X128008047Y-96535857D01*
X128198523Y-96583476D01*
X128293761Y-96678714D01*
X128341380Y-96773952D01*
X128341380Y-96964428D01*
X127341380Y-96202523D02*
X127341380Y-95583476D01*
X127722333Y-95916809D01*
X127722333Y-95773952D01*
X127769952Y-95678714D01*
X127817571Y-95631095D01*
X127912809Y-95583476D01*
X128150904Y-95583476D01*
X128246142Y-95631095D01*
X128293761Y-95678714D01*
X128341380Y-95773952D01*
X128341380Y-96059666D01*
X128293761Y-96154904D01*
X128246142Y-96202523D01*
%TO.C,D3*%
X194943504Y-87269580D02*
X194943504Y-86269580D01*
X195181600Y-86269580D01*
X195324457Y-86317200D01*
X195419695Y-86412438D01*
X195467314Y-86507676D01*
X195514933Y-86698152D01*
X195514933Y-86841009D01*
X195467314Y-87031485D01*
X195419695Y-87126723D01*
X195324457Y-87221961D01*
X195181600Y-87269580D01*
X194943504Y-87269580D01*
X195848266Y-86269580D02*
X196467314Y-86269580D01*
X196133980Y-86650533D01*
X196276838Y-86650533D01*
X196372076Y-86698152D01*
X196419695Y-86745771D01*
X196467314Y-86841009D01*
X196467314Y-87079104D01*
X196419695Y-87174342D01*
X196372076Y-87221961D01*
X196276838Y-87269580D01*
X195991123Y-87269580D01*
X195895885Y-87221961D01*
X195848266Y-87174342D01*
%TO.C,J12*%
X124285476Y-120864380D02*
X124285476Y-121578666D01*
X124237857Y-121721523D01*
X124142619Y-121816761D01*
X123999761Y-121864380D01*
X123904523Y-121864380D01*
X125285476Y-121864380D02*
X124714047Y-121864380D01*
X124999761Y-121864380D02*
X124999761Y-120864380D01*
X124904523Y-121007238D01*
X124809285Y-121102476D01*
X124714047Y-121150095D01*
X125666428Y-120959619D02*
X125714047Y-120912000D01*
X125809285Y-120864380D01*
X126047380Y-120864380D01*
X126142619Y-120912000D01*
X126190238Y-120959619D01*
X126237857Y-121054857D01*
X126237857Y-121150095D01*
X126190238Y-121292952D01*
X125618809Y-121864380D01*
X126237857Y-121864380D01*
%TO.C,J2*%
X183132480Y-127320633D02*
X183846766Y-127320633D01*
X183989623Y-127368252D01*
X184084861Y-127463490D01*
X184132480Y-127606347D01*
X184132480Y-127701585D01*
X183227719Y-126892061D02*
X183180100Y-126844442D01*
X183132480Y-126749204D01*
X183132480Y-126511109D01*
X183180100Y-126415871D01*
X183227719Y-126368252D01*
X183322957Y-126320633D01*
X183418195Y-126320633D01*
X183561052Y-126368252D01*
X184132480Y-126939680D01*
X184132480Y-126320633D01*
%TO.C,SW1*%
X111950666Y-116736761D02*
X112093523Y-116784380D01*
X112331619Y-116784380D01*
X112426857Y-116736761D01*
X112474476Y-116689142D01*
X112522095Y-116593904D01*
X112522095Y-116498666D01*
X112474476Y-116403428D01*
X112426857Y-116355809D01*
X112331619Y-116308190D01*
X112141142Y-116260571D01*
X112045904Y-116212952D01*
X111998285Y-116165333D01*
X111950666Y-116070095D01*
X111950666Y-115974857D01*
X111998285Y-115879619D01*
X112045904Y-115832000D01*
X112141142Y-115784380D01*
X112379238Y-115784380D01*
X112522095Y-115832000D01*
X112855428Y-115784380D02*
X113093523Y-116784380D01*
X113284000Y-116070095D01*
X113474476Y-116784380D01*
X113712571Y-115784380D01*
X114617333Y-116784380D02*
X114045904Y-116784380D01*
X114331619Y-116784380D02*
X114331619Y-115784380D01*
X114236380Y-115927238D01*
X114141142Y-116022476D01*
X114045904Y-116070095D01*
%TO.C,C7*%
X143359142Y-103976466D02*
X143406761Y-104024085D01*
X143454380Y-104166942D01*
X143454380Y-104262180D01*
X143406761Y-104405038D01*
X143311523Y-104500276D01*
X143216285Y-104547895D01*
X143025809Y-104595514D01*
X142882952Y-104595514D01*
X142692476Y-104547895D01*
X142597238Y-104500276D01*
X142502000Y-104405038D01*
X142454380Y-104262180D01*
X142454380Y-104166942D01*
X142502000Y-104024085D01*
X142549619Y-103976466D01*
X142454380Y-103643133D02*
X142454380Y-102976466D01*
X143454380Y-103405038D01*
%TO.C,C11*%
X145927842Y-120245142D02*
X145880223Y-120292761D01*
X145737366Y-120340380D01*
X145642128Y-120340380D01*
X145499271Y-120292761D01*
X145404033Y-120197523D01*
X145356414Y-120102285D01*
X145308795Y-119911809D01*
X145308795Y-119768952D01*
X145356414Y-119578476D01*
X145404033Y-119483238D01*
X145499271Y-119388000D01*
X145642128Y-119340380D01*
X145737366Y-119340380D01*
X145880223Y-119388000D01*
X145927842Y-119435619D01*
X146880223Y-120340380D02*
X146308795Y-120340380D01*
X146594509Y-120340380D02*
X146594509Y-119340380D01*
X146499271Y-119483238D01*
X146404033Y-119578476D01*
X146308795Y-119626095D01*
X147832604Y-120340380D02*
X147261176Y-120340380D01*
X147546890Y-120340380D02*
X147546890Y-119340380D01*
X147451652Y-119483238D01*
X147356414Y-119578476D01*
X147261176Y-119626095D01*
%TO.C,C5*%
X145959533Y-117959142D02*
X145911914Y-118006761D01*
X145769057Y-118054380D01*
X145673819Y-118054380D01*
X145530961Y-118006761D01*
X145435723Y-117911523D01*
X145388104Y-117816285D01*
X145340485Y-117625809D01*
X145340485Y-117482952D01*
X145388104Y-117292476D01*
X145435723Y-117197238D01*
X145530961Y-117102000D01*
X145673819Y-117054380D01*
X145769057Y-117054380D01*
X145911914Y-117102000D01*
X145959533Y-117149619D01*
X146864295Y-117054380D02*
X146388104Y-117054380D01*
X146340485Y-117530571D01*
X146388104Y-117482952D01*
X146483342Y-117435333D01*
X146721438Y-117435333D01*
X146816676Y-117482952D01*
X146864295Y-117530571D01*
X146911914Y-117625809D01*
X146911914Y-117863904D01*
X146864295Y-117959142D01*
X146816676Y-118006761D01*
X146721438Y-118054380D01*
X146483342Y-118054380D01*
X146388104Y-118006761D01*
X146340485Y-117959142D01*
%TO.C,C4*%
X133072142Y-121451666D02*
X133119761Y-121499285D01*
X133167380Y-121642142D01*
X133167380Y-121737380D01*
X133119761Y-121880238D01*
X133024523Y-121975476D01*
X132929285Y-122023095D01*
X132738809Y-122070714D01*
X132595952Y-122070714D01*
X132405476Y-122023095D01*
X132310238Y-121975476D01*
X132215000Y-121880238D01*
X132167380Y-121737380D01*
X132167380Y-121642142D01*
X132215000Y-121499285D01*
X132262619Y-121451666D01*
X132500714Y-120594523D02*
X133167380Y-120594523D01*
X132119761Y-120832619D02*
X132834047Y-121070714D01*
X132834047Y-120451666D01*
%TO.C,R19*%
X118104180Y-111767857D02*
X117627990Y-112101190D01*
X118104180Y-112339285D02*
X117104180Y-112339285D01*
X117104180Y-111958333D01*
X117151800Y-111863095D01*
X117199419Y-111815476D01*
X117294657Y-111767857D01*
X117437514Y-111767857D01*
X117532752Y-111815476D01*
X117580371Y-111863095D01*
X117627990Y-111958333D01*
X117627990Y-112339285D01*
X118104180Y-110815476D02*
X118104180Y-111386904D01*
X118104180Y-111101190D02*
X117104180Y-111101190D01*
X117247038Y-111196428D01*
X117342276Y-111291666D01*
X117389895Y-111386904D01*
X118104180Y-110339285D02*
X118104180Y-110148809D01*
X118056561Y-110053571D01*
X118008942Y-110005952D01*
X117866085Y-109910714D01*
X117675609Y-109863095D01*
X117294657Y-109863095D01*
X117199419Y-109910714D01*
X117151800Y-109958333D01*
X117104180Y-110053571D01*
X117104180Y-110244047D01*
X117151800Y-110339285D01*
X117199419Y-110386904D01*
X117294657Y-110434523D01*
X117532752Y-110434523D01*
X117627990Y-110386904D01*
X117675609Y-110339285D01*
X117723228Y-110244047D01*
X117723228Y-110053571D01*
X117675609Y-109958333D01*
X117627990Y-109910714D01*
X117532752Y-109863095D01*
%TO.C,C8*%
X136755142Y-100623666D02*
X136802761Y-100671285D01*
X136850380Y-100814142D01*
X136850380Y-100909380D01*
X136802761Y-101052238D01*
X136707523Y-101147476D01*
X136612285Y-101195095D01*
X136421809Y-101242714D01*
X136278952Y-101242714D01*
X136088476Y-101195095D01*
X135993238Y-101147476D01*
X135898000Y-101052238D01*
X135850380Y-100909380D01*
X135850380Y-100814142D01*
X135898000Y-100671285D01*
X135945619Y-100623666D01*
X136278952Y-100052238D02*
X136231333Y-100147476D01*
X136183714Y-100195095D01*
X136088476Y-100242714D01*
X136040857Y-100242714D01*
X135945619Y-100195095D01*
X135898000Y-100147476D01*
X135850380Y-100052238D01*
X135850380Y-99861761D01*
X135898000Y-99766523D01*
X135945619Y-99718904D01*
X136040857Y-99671285D01*
X136088476Y-99671285D01*
X136183714Y-99718904D01*
X136231333Y-99766523D01*
X136278952Y-99861761D01*
X136278952Y-100052238D01*
X136326571Y-100147476D01*
X136374190Y-100195095D01*
X136469428Y-100242714D01*
X136659904Y-100242714D01*
X136755142Y-100195095D01*
X136802761Y-100147476D01*
X136850380Y-100052238D01*
X136850380Y-99861761D01*
X136802761Y-99766523D01*
X136755142Y-99718904D01*
X136659904Y-99671285D01*
X136469428Y-99671285D01*
X136374190Y-99718904D01*
X136326571Y-99766523D01*
X136278952Y-99861761D01*
%TO.C,C6*%
X134723142Y-100623666D02*
X134770761Y-100671285D01*
X134818380Y-100814142D01*
X134818380Y-100909380D01*
X134770761Y-101052238D01*
X134675523Y-101147476D01*
X134580285Y-101195095D01*
X134389809Y-101242714D01*
X134246952Y-101242714D01*
X134056476Y-101195095D01*
X133961238Y-101147476D01*
X133866000Y-101052238D01*
X133818380Y-100909380D01*
X133818380Y-100814142D01*
X133866000Y-100671285D01*
X133913619Y-100623666D01*
X133818380Y-99766523D02*
X133818380Y-99957000D01*
X133866000Y-100052238D01*
X133913619Y-100099857D01*
X134056476Y-100195095D01*
X134246952Y-100242714D01*
X134627904Y-100242714D01*
X134723142Y-100195095D01*
X134770761Y-100147476D01*
X134818380Y-100052238D01*
X134818380Y-99861761D01*
X134770761Y-99766523D01*
X134723142Y-99718904D01*
X134627904Y-99671285D01*
X134389809Y-99671285D01*
X134294571Y-99718904D01*
X134246952Y-99766523D01*
X134199333Y-99861761D01*
X134199333Y-100052238D01*
X134246952Y-100147476D01*
X134294571Y-100195095D01*
X134389809Y-100242714D01*
%TO.C,J8*%
X123110666Y-87844380D02*
X123110666Y-88558666D01*
X123063047Y-88701523D01*
X122967809Y-88796761D01*
X122824952Y-88844380D01*
X122729714Y-88844380D01*
X123729714Y-88272952D02*
X123634476Y-88225333D01*
X123586857Y-88177714D01*
X123539238Y-88082476D01*
X123539238Y-88034857D01*
X123586857Y-87939619D01*
X123634476Y-87892000D01*
X123729714Y-87844380D01*
X123920190Y-87844380D01*
X124015428Y-87892000D01*
X124063047Y-87939619D01*
X124110666Y-88034857D01*
X124110666Y-88082476D01*
X124063047Y-88177714D01*
X124015428Y-88225333D01*
X123920190Y-88272952D01*
X123729714Y-88272952D01*
X123634476Y-88320571D01*
X123586857Y-88368190D01*
X123539238Y-88463428D01*
X123539238Y-88653904D01*
X123586857Y-88749142D01*
X123634476Y-88796761D01*
X123729714Y-88844380D01*
X123920190Y-88844380D01*
X124015428Y-88796761D01*
X124063047Y-88749142D01*
X124110666Y-88653904D01*
X124110666Y-88463428D01*
X124063047Y-88368190D01*
X124015428Y-88320571D01*
X123920190Y-88272952D01*
%TO.C,J7*%
X110918666Y-88098380D02*
X110918666Y-88812666D01*
X110871047Y-88955523D01*
X110775809Y-89050761D01*
X110632952Y-89098380D01*
X110537714Y-89098380D01*
X111299619Y-88098380D02*
X111966285Y-88098380D01*
X111537714Y-89098380D01*
%TO.C,R18*%
X102330642Y-102560380D02*
X101997309Y-102084190D01*
X101759214Y-102560380D02*
X101759214Y-101560380D01*
X102140166Y-101560380D01*
X102235404Y-101608000D01*
X102283023Y-101655619D01*
X102330642Y-101750857D01*
X102330642Y-101893714D01*
X102283023Y-101988952D01*
X102235404Y-102036571D01*
X102140166Y-102084190D01*
X101759214Y-102084190D01*
X103283023Y-102560380D02*
X102711595Y-102560380D01*
X102997309Y-102560380D02*
X102997309Y-101560380D01*
X102902071Y-101703238D01*
X102806833Y-101798476D01*
X102711595Y-101846095D01*
X103854452Y-101988952D02*
X103759214Y-101941333D01*
X103711595Y-101893714D01*
X103663976Y-101798476D01*
X103663976Y-101750857D01*
X103711595Y-101655619D01*
X103759214Y-101608000D01*
X103854452Y-101560380D01*
X104044928Y-101560380D01*
X104140166Y-101608000D01*
X104187785Y-101655619D01*
X104235404Y-101750857D01*
X104235404Y-101798476D01*
X104187785Y-101893714D01*
X104140166Y-101941333D01*
X104044928Y-101988952D01*
X103854452Y-101988952D01*
X103759214Y-102036571D01*
X103711595Y-102084190D01*
X103663976Y-102179428D01*
X103663976Y-102369904D01*
X103711595Y-102465142D01*
X103759214Y-102512761D01*
X103854452Y-102560380D01*
X104044928Y-102560380D01*
X104140166Y-102512761D01*
X104187785Y-102465142D01*
X104235404Y-102369904D01*
X104235404Y-102179428D01*
X104187785Y-102084190D01*
X104140166Y-102036571D01*
X104044928Y-101988952D01*
%TO.C,R17*%
X191254142Y-122335380D02*
X190920809Y-121859190D01*
X190682714Y-122335380D02*
X190682714Y-121335380D01*
X191063666Y-121335380D01*
X191158904Y-121383000D01*
X191206523Y-121430619D01*
X191254142Y-121525857D01*
X191254142Y-121668714D01*
X191206523Y-121763952D01*
X191158904Y-121811571D01*
X191063666Y-121859190D01*
X190682714Y-121859190D01*
X192206523Y-122335380D02*
X191635095Y-122335380D01*
X191920809Y-122335380D02*
X191920809Y-121335380D01*
X191825571Y-121478238D01*
X191730333Y-121573476D01*
X191635095Y-121621095D01*
X192539857Y-121335380D02*
X193206523Y-121335380D01*
X192777952Y-122335380D01*
%TO.C,D10*%
X194378414Y-122372380D02*
X194378414Y-121372380D01*
X194616509Y-121372380D01*
X194759366Y-121420000D01*
X194854604Y-121515238D01*
X194902223Y-121610476D01*
X194949842Y-121800952D01*
X194949842Y-121943809D01*
X194902223Y-122134285D01*
X194854604Y-122229523D01*
X194759366Y-122324761D01*
X194616509Y-122372380D01*
X194378414Y-122372380D01*
X195902223Y-122372380D02*
X195330795Y-122372380D01*
X195616509Y-122372380D02*
X195616509Y-121372380D01*
X195521271Y-121515238D01*
X195426033Y-121610476D01*
X195330795Y-121658095D01*
X196521271Y-121372380D02*
X196616509Y-121372380D01*
X196711747Y-121420000D01*
X196759366Y-121467619D01*
X196806985Y-121562857D01*
X196854604Y-121753333D01*
X196854604Y-121991428D01*
X196806985Y-122181904D01*
X196759366Y-122277142D01*
X196711747Y-122324761D01*
X196616509Y-122372380D01*
X196521271Y-122372380D01*
X196426033Y-122324761D01*
X196378414Y-122277142D01*
X196330795Y-122181904D01*
X196283176Y-121991428D01*
X196283176Y-121753333D01*
X196330795Y-121562857D01*
X196378414Y-121467619D01*
X196426033Y-121420000D01*
X196521271Y-121372380D01*
%TO.C,R16*%
X191254142Y-120253380D02*
X190920809Y-119777190D01*
X190682714Y-120253380D02*
X190682714Y-119253380D01*
X191063666Y-119253380D01*
X191158904Y-119301000D01*
X191206523Y-119348619D01*
X191254142Y-119443857D01*
X191254142Y-119586714D01*
X191206523Y-119681952D01*
X191158904Y-119729571D01*
X191063666Y-119777190D01*
X190682714Y-119777190D01*
X192206523Y-120253380D02*
X191635095Y-120253380D01*
X191920809Y-120253380D02*
X191920809Y-119253380D01*
X191825571Y-119396238D01*
X191730333Y-119491476D01*
X191635095Y-119539095D01*
X193063666Y-119253380D02*
X192873190Y-119253380D01*
X192777952Y-119301000D01*
X192730333Y-119348619D01*
X192635095Y-119491476D01*
X192587476Y-119681952D01*
X192587476Y-120062904D01*
X192635095Y-120158142D01*
X192682714Y-120205761D01*
X192777952Y-120253380D01*
X192968428Y-120253380D01*
X193063666Y-120205761D01*
X193111285Y-120158142D01*
X193158904Y-120062904D01*
X193158904Y-119824809D01*
X193111285Y-119729571D01*
X193063666Y-119681952D01*
X192968428Y-119634333D01*
X192777952Y-119634333D01*
X192682714Y-119681952D01*
X192635095Y-119729571D01*
X192587476Y-119824809D01*
%TO.C,D9*%
X195007004Y-120391180D02*
X195007004Y-119391180D01*
X195245100Y-119391180D01*
X195387957Y-119438800D01*
X195483195Y-119534038D01*
X195530814Y-119629276D01*
X195578433Y-119819752D01*
X195578433Y-119962609D01*
X195530814Y-120153085D01*
X195483195Y-120248323D01*
X195387957Y-120343561D01*
X195245100Y-120391180D01*
X195007004Y-120391180D01*
X196054623Y-120391180D02*
X196245100Y-120391180D01*
X196340338Y-120343561D01*
X196387957Y-120295942D01*
X196483195Y-120153085D01*
X196530814Y-119962609D01*
X196530814Y-119581657D01*
X196483195Y-119486419D01*
X196435576Y-119438800D01*
X196340338Y-119391180D01*
X196149861Y-119391180D01*
X196054623Y-119438800D01*
X196007004Y-119486419D01*
X195959385Y-119581657D01*
X195959385Y-119819752D01*
X196007004Y-119914990D01*
X196054623Y-119962609D01*
X196149861Y-120010228D01*
X196340338Y-120010228D01*
X196435576Y-119962609D01*
X196483195Y-119914990D01*
X196530814Y-119819752D01*
%TO.C,R15*%
X191279542Y-114765080D02*
X190946209Y-114288890D01*
X190708114Y-114765080D02*
X190708114Y-113765080D01*
X191089066Y-113765080D01*
X191184304Y-113812700D01*
X191231923Y-113860319D01*
X191279542Y-113955557D01*
X191279542Y-114098414D01*
X191231923Y-114193652D01*
X191184304Y-114241271D01*
X191089066Y-114288890D01*
X190708114Y-114288890D01*
X192231923Y-114765080D02*
X191660495Y-114765080D01*
X191946209Y-114765080D02*
X191946209Y-113765080D01*
X191850971Y-113907938D01*
X191755733Y-114003176D01*
X191660495Y-114050795D01*
X193136685Y-113765080D02*
X192660495Y-113765080D01*
X192612876Y-114241271D01*
X192660495Y-114193652D01*
X192755733Y-114146033D01*
X192993828Y-114146033D01*
X193089066Y-114193652D01*
X193136685Y-114241271D01*
X193184304Y-114336509D01*
X193184304Y-114574604D01*
X193136685Y-114669842D01*
X193089066Y-114717461D01*
X192993828Y-114765080D01*
X192755733Y-114765080D01*
X192660495Y-114717461D01*
X192612876Y-114669842D01*
%TO.C,D8*%
X194943504Y-114815880D02*
X194943504Y-113815880D01*
X195181600Y-113815880D01*
X195324457Y-113863500D01*
X195419695Y-113958738D01*
X195467314Y-114053976D01*
X195514933Y-114244452D01*
X195514933Y-114387309D01*
X195467314Y-114577785D01*
X195419695Y-114673023D01*
X195324457Y-114768261D01*
X195181600Y-114815880D01*
X194943504Y-114815880D01*
X196086361Y-114244452D02*
X195991123Y-114196833D01*
X195943504Y-114149214D01*
X195895885Y-114053976D01*
X195895885Y-114006357D01*
X195943504Y-113911119D01*
X195991123Y-113863500D01*
X196086361Y-113815880D01*
X196276838Y-113815880D01*
X196372076Y-113863500D01*
X196419695Y-113911119D01*
X196467314Y-114006357D01*
X196467314Y-114053976D01*
X196419695Y-114149214D01*
X196372076Y-114196833D01*
X196276838Y-114244452D01*
X196086361Y-114244452D01*
X195991123Y-114292071D01*
X195943504Y-114339690D01*
X195895885Y-114434928D01*
X195895885Y-114625404D01*
X195943504Y-114720642D01*
X195991123Y-114768261D01*
X196086361Y-114815880D01*
X196276838Y-114815880D01*
X196372076Y-114768261D01*
X196419695Y-114720642D01*
X196467314Y-114625404D01*
X196467314Y-114434928D01*
X196419695Y-114339690D01*
X196372076Y-114292071D01*
X196276838Y-114244452D01*
%TO.C,R14*%
X191431942Y-109278680D02*
X191098609Y-108802490D01*
X190860514Y-109278680D02*
X190860514Y-108278680D01*
X191241466Y-108278680D01*
X191336704Y-108326300D01*
X191384323Y-108373919D01*
X191431942Y-108469157D01*
X191431942Y-108612014D01*
X191384323Y-108707252D01*
X191336704Y-108754871D01*
X191241466Y-108802490D01*
X190860514Y-108802490D01*
X192384323Y-109278680D02*
X191812895Y-109278680D01*
X192098609Y-109278680D02*
X192098609Y-108278680D01*
X192003371Y-108421538D01*
X191908133Y-108516776D01*
X191812895Y-108564395D01*
X193241466Y-108612014D02*
X193241466Y-109278680D01*
X193003371Y-108231061D02*
X192765276Y-108945347D01*
X193384323Y-108945347D01*
%TO.C,D7*%
X194981604Y-109278680D02*
X194981604Y-108278680D01*
X195219700Y-108278680D01*
X195362557Y-108326300D01*
X195457795Y-108421538D01*
X195505414Y-108516776D01*
X195553033Y-108707252D01*
X195553033Y-108850109D01*
X195505414Y-109040585D01*
X195457795Y-109135823D01*
X195362557Y-109231061D01*
X195219700Y-109278680D01*
X194981604Y-109278680D01*
X195886366Y-108278680D02*
X196553033Y-108278680D01*
X196124461Y-109278680D01*
%TO.C,R13*%
X130040142Y-100908380D02*
X129706809Y-100432190D01*
X129468714Y-100908380D02*
X129468714Y-99908380D01*
X129849666Y-99908380D01*
X129944904Y-99956000D01*
X129992523Y-100003619D01*
X130040142Y-100098857D01*
X130040142Y-100241714D01*
X129992523Y-100336952D01*
X129944904Y-100384571D01*
X129849666Y-100432190D01*
X129468714Y-100432190D01*
X130992523Y-100908380D02*
X130421095Y-100908380D01*
X130706809Y-100908380D02*
X130706809Y-99908380D01*
X130611571Y-100051238D01*
X130516333Y-100146476D01*
X130421095Y-100194095D01*
X131325857Y-99908380D02*
X131944904Y-99908380D01*
X131611571Y-100289333D01*
X131754428Y-100289333D01*
X131849666Y-100336952D01*
X131897285Y-100384571D01*
X131944904Y-100479809D01*
X131944904Y-100717904D01*
X131897285Y-100813142D01*
X131849666Y-100860761D01*
X131754428Y-100908380D01*
X131468714Y-100908380D01*
X131373476Y-100860761D01*
X131325857Y-100813142D01*
%TO.C,R12*%
X118483142Y-101036380D02*
X118149809Y-100560190D01*
X117911714Y-101036380D02*
X117911714Y-100036380D01*
X118292666Y-100036380D01*
X118387904Y-100084000D01*
X118435523Y-100131619D01*
X118483142Y-100226857D01*
X118483142Y-100369714D01*
X118435523Y-100464952D01*
X118387904Y-100512571D01*
X118292666Y-100560190D01*
X117911714Y-100560190D01*
X119435523Y-101036380D02*
X118864095Y-101036380D01*
X119149809Y-101036380D02*
X119149809Y-100036380D01*
X119054571Y-100179238D01*
X118959333Y-100274476D01*
X118864095Y-100322095D01*
X119816476Y-100131619D02*
X119864095Y-100084000D01*
X119959333Y-100036380D01*
X120197428Y-100036380D01*
X120292666Y-100084000D01*
X120340285Y-100131619D01*
X120387904Y-100226857D01*
X120387904Y-100322095D01*
X120340285Y-100464952D01*
X119768857Y-101036380D01*
X120387904Y-101036380D01*
%TO.C,R11*%
X191343042Y-103716080D02*
X191009709Y-103239890D01*
X190771614Y-103716080D02*
X190771614Y-102716080D01*
X191152566Y-102716080D01*
X191247804Y-102763700D01*
X191295423Y-102811319D01*
X191343042Y-102906557D01*
X191343042Y-103049414D01*
X191295423Y-103144652D01*
X191247804Y-103192271D01*
X191152566Y-103239890D01*
X190771614Y-103239890D01*
X192295423Y-103716080D02*
X191723995Y-103716080D01*
X192009709Y-103716080D02*
X192009709Y-102716080D01*
X191914471Y-102858938D01*
X191819233Y-102954176D01*
X191723995Y-103001795D01*
X193247804Y-103716080D02*
X192676376Y-103716080D01*
X192962090Y-103716080D02*
X192962090Y-102716080D01*
X192866852Y-102858938D01*
X192771614Y-102954176D01*
X192676376Y-103001795D01*
%TO.C,D6*%
X194956204Y-103792280D02*
X194956204Y-102792280D01*
X195194300Y-102792280D01*
X195337157Y-102839900D01*
X195432395Y-102935138D01*
X195480014Y-103030376D01*
X195527633Y-103220852D01*
X195527633Y-103363709D01*
X195480014Y-103554185D01*
X195432395Y-103649423D01*
X195337157Y-103744661D01*
X195194300Y-103792280D01*
X194956204Y-103792280D01*
X196384776Y-102792280D02*
X196194300Y-102792280D01*
X196099061Y-102839900D01*
X196051442Y-102887519D01*
X195956204Y-103030376D01*
X195908585Y-103220852D01*
X195908585Y-103601804D01*
X195956204Y-103697042D01*
X196003823Y-103744661D01*
X196099061Y-103792280D01*
X196289538Y-103792280D01*
X196384776Y-103744661D01*
X196432395Y-103697042D01*
X196480014Y-103601804D01*
X196480014Y-103363709D01*
X196432395Y-103268471D01*
X196384776Y-103220852D01*
X196289538Y-103173233D01*
X196099061Y-103173233D01*
X196003823Y-103220852D01*
X195956204Y-103268471D01*
X195908585Y-103363709D01*
%TO.C,U5*%
X151383459Y-102194924D02*
X151383459Y-103005123D01*
X151431118Y-103100440D01*
X151478777Y-103148099D01*
X151574094Y-103195758D01*
X151764729Y-103195758D01*
X151860047Y-103148099D01*
X151907706Y-103100440D01*
X151955364Y-103005123D01*
X151955364Y-102194924D01*
X152908540Y-102194924D02*
X152431952Y-102194924D01*
X152384293Y-102671511D01*
X152431952Y-102623853D01*
X152527270Y-102576194D01*
X152765563Y-102576194D01*
X152860881Y-102623853D01*
X152908540Y-102671511D01*
X152956198Y-102766829D01*
X152956198Y-103005123D01*
X152908540Y-103100440D01*
X152860881Y-103148099D01*
X152765563Y-103195758D01*
X152527270Y-103195758D01*
X152431952Y-103148099D01*
X152384293Y-103100440D01*
%TO.C,Q1*%
X159924761Y-89066619D02*
X159829523Y-89019000D01*
X159734285Y-88923761D01*
X159591428Y-88780904D01*
X159496190Y-88733285D01*
X159400952Y-88733285D01*
X159448571Y-88971380D02*
X159353333Y-88923761D01*
X159258095Y-88828523D01*
X159210476Y-88638047D01*
X159210476Y-88304714D01*
X159258095Y-88114238D01*
X159353333Y-88019000D01*
X159448571Y-87971380D01*
X159639047Y-87971380D01*
X159734285Y-88019000D01*
X159829523Y-88114238D01*
X159877142Y-88304714D01*
X159877142Y-88638047D01*
X159829523Y-88828523D01*
X159734285Y-88923761D01*
X159639047Y-88971380D01*
X159448571Y-88971380D01*
X160829523Y-88971380D02*
X160258095Y-88971380D01*
X160543809Y-88971380D02*
X160543809Y-87971380D01*
X160448571Y-88114238D01*
X160353333Y-88209476D01*
X160258095Y-88257095D01*
%TO.C,R10*%
X191533542Y-98204280D02*
X191200209Y-97728090D01*
X190962114Y-98204280D02*
X190962114Y-97204280D01*
X191343066Y-97204280D01*
X191438304Y-97251900D01*
X191485923Y-97299519D01*
X191533542Y-97394757D01*
X191533542Y-97537614D01*
X191485923Y-97632852D01*
X191438304Y-97680471D01*
X191343066Y-97728090D01*
X190962114Y-97728090D01*
X192485923Y-98204280D02*
X191914495Y-98204280D01*
X192200209Y-98204280D02*
X192200209Y-97204280D01*
X192104971Y-97347138D01*
X192009733Y-97442376D01*
X191914495Y-97489995D01*
X193104971Y-97204280D02*
X193200209Y-97204280D01*
X193295447Y-97251900D01*
X193343066Y-97299519D01*
X193390685Y-97394757D01*
X193438304Y-97585233D01*
X193438304Y-97823328D01*
X193390685Y-98013804D01*
X193343066Y-98109042D01*
X193295447Y-98156661D01*
X193200209Y-98204280D01*
X193104971Y-98204280D01*
X193009733Y-98156661D01*
X192962114Y-98109042D01*
X192914495Y-98013804D01*
X192866876Y-97823328D01*
X192866876Y-97585233D01*
X192914495Y-97394757D01*
X192962114Y-97299519D01*
X193009733Y-97251900D01*
X193104971Y-97204280D01*
%TO.C,D5*%
X194930804Y-98267780D02*
X194930804Y-97267780D01*
X195168900Y-97267780D01*
X195311757Y-97315400D01*
X195406995Y-97410638D01*
X195454614Y-97505876D01*
X195502233Y-97696352D01*
X195502233Y-97839209D01*
X195454614Y-98029685D01*
X195406995Y-98124923D01*
X195311757Y-98220161D01*
X195168900Y-98267780D01*
X194930804Y-98267780D01*
X196406995Y-97267780D02*
X195930804Y-97267780D01*
X195883185Y-97743971D01*
X195930804Y-97696352D01*
X196026042Y-97648733D01*
X196264138Y-97648733D01*
X196359376Y-97696352D01*
X196406995Y-97743971D01*
X196454614Y-97839209D01*
X196454614Y-98077304D01*
X196406995Y-98172542D01*
X196359376Y-98220161D01*
X196264138Y-98267780D01*
X196026042Y-98267780D01*
X195930804Y-98220161D01*
X195883185Y-98172542D01*
%TO.C,R9*%
X191781133Y-92730580D02*
X191447800Y-92254390D01*
X191209704Y-92730580D02*
X191209704Y-91730580D01*
X191590657Y-91730580D01*
X191685895Y-91778200D01*
X191733514Y-91825819D01*
X191781133Y-91921057D01*
X191781133Y-92063914D01*
X191733514Y-92159152D01*
X191685895Y-92206771D01*
X191590657Y-92254390D01*
X191209704Y-92254390D01*
X192257323Y-92730580D02*
X192447800Y-92730580D01*
X192543038Y-92682961D01*
X192590657Y-92635342D01*
X192685895Y-92492485D01*
X192733514Y-92302009D01*
X192733514Y-91921057D01*
X192685895Y-91825819D01*
X192638276Y-91778200D01*
X192543038Y-91730580D01*
X192352561Y-91730580D01*
X192257323Y-91778200D01*
X192209704Y-91825819D01*
X192162085Y-91921057D01*
X192162085Y-92159152D01*
X192209704Y-92254390D01*
X192257323Y-92302009D01*
X192352561Y-92349628D01*
X192543038Y-92349628D01*
X192638276Y-92302009D01*
X192685895Y-92254390D01*
X192733514Y-92159152D01*
%TO.C,R8*%
X191806533Y-87269580D02*
X191473200Y-86793390D01*
X191235104Y-87269580D02*
X191235104Y-86269580D01*
X191616057Y-86269580D01*
X191711295Y-86317200D01*
X191758914Y-86364819D01*
X191806533Y-86460057D01*
X191806533Y-86602914D01*
X191758914Y-86698152D01*
X191711295Y-86745771D01*
X191616057Y-86793390D01*
X191235104Y-86793390D01*
X192377961Y-86698152D02*
X192282723Y-86650533D01*
X192235104Y-86602914D01*
X192187485Y-86507676D01*
X192187485Y-86460057D01*
X192235104Y-86364819D01*
X192282723Y-86317200D01*
X192377961Y-86269580D01*
X192568438Y-86269580D01*
X192663676Y-86317200D01*
X192711295Y-86364819D01*
X192758914Y-86460057D01*
X192758914Y-86507676D01*
X192711295Y-86602914D01*
X192663676Y-86650533D01*
X192568438Y-86698152D01*
X192377961Y-86698152D01*
X192282723Y-86745771D01*
X192235104Y-86793390D01*
X192187485Y-86888628D01*
X192187485Y-87079104D01*
X192235104Y-87174342D01*
X192282723Y-87221961D01*
X192377961Y-87269580D01*
X192568438Y-87269580D01*
X192663676Y-87221961D01*
X192711295Y-87174342D01*
X192758914Y-87079104D01*
X192758914Y-86888628D01*
X192711295Y-86793390D01*
X192663676Y-86745771D01*
X192568438Y-86698152D01*
%TO.C,D4*%
X194918104Y-92703380D02*
X194918104Y-91703380D01*
X195156200Y-91703380D01*
X195299057Y-91751000D01*
X195394295Y-91846238D01*
X195441914Y-91941476D01*
X195489533Y-92131952D01*
X195489533Y-92274809D01*
X195441914Y-92465285D01*
X195394295Y-92560523D01*
X195299057Y-92655761D01*
X195156200Y-92703380D01*
X194918104Y-92703380D01*
X196346676Y-92036714D02*
X196346676Y-92703380D01*
X196108580Y-91655761D02*
X195870485Y-92370047D01*
X196489533Y-92370047D01*
%TO.C,U1*%
X132715095Y-107148380D02*
X132715095Y-107957904D01*
X132762714Y-108053142D01*
X132810333Y-108100761D01*
X132905571Y-108148380D01*
X133096047Y-108148380D01*
X133191285Y-108100761D01*
X133238904Y-108053142D01*
X133286523Y-107957904D01*
X133286523Y-107148380D01*
X134286523Y-108148380D02*
X133715095Y-108148380D01*
X134000809Y-108148380D02*
X134000809Y-107148380D01*
X133905571Y-107291238D01*
X133810333Y-107386476D01*
X133715095Y-107434095D01*
%TO.C,R2*%
X155900380Y-113069666D02*
X155424190Y-113403000D01*
X155900380Y-113641095D02*
X154900380Y-113641095D01*
X154900380Y-113260142D01*
X154948000Y-113164904D01*
X154995619Y-113117285D01*
X155090857Y-113069666D01*
X155233714Y-113069666D01*
X155328952Y-113117285D01*
X155376571Y-113164904D01*
X155424190Y-113260142D01*
X155424190Y-113641095D01*
X154995619Y-112688714D02*
X154948000Y-112641095D01*
X154900380Y-112545857D01*
X154900380Y-112307761D01*
X154948000Y-112212523D01*
X154995619Y-112164904D01*
X155090857Y-112117285D01*
X155186095Y-112117285D01*
X155328952Y-112164904D01*
X155900380Y-112736333D01*
X155900380Y-112117285D01*
%TO.C,R1*%
X149550380Y-112053666D02*
X149074190Y-112387000D01*
X149550380Y-112625095D02*
X148550380Y-112625095D01*
X148550380Y-112244142D01*
X148598000Y-112148904D01*
X148645619Y-112101285D01*
X148740857Y-112053666D01*
X148883714Y-112053666D01*
X148978952Y-112101285D01*
X149026571Y-112148904D01*
X149074190Y-112244142D01*
X149074190Y-112625095D01*
X149550380Y-111101285D02*
X149550380Y-111672714D01*
X149550380Y-111387000D02*
X148550380Y-111387000D01*
X148693238Y-111482238D01*
X148788476Y-111577476D01*
X148836095Y-111672714D01*
%TO.C,C12*%
X145518142Y-104528857D02*
X145565761Y-104576476D01*
X145613380Y-104719333D01*
X145613380Y-104814571D01*
X145565761Y-104957428D01*
X145470523Y-105052666D01*
X145375285Y-105100285D01*
X145184809Y-105147904D01*
X145041952Y-105147904D01*
X144851476Y-105100285D01*
X144756238Y-105052666D01*
X144661000Y-104957428D01*
X144613380Y-104814571D01*
X144613380Y-104719333D01*
X144661000Y-104576476D01*
X144708619Y-104528857D01*
X145613380Y-103576476D02*
X145613380Y-104147904D01*
X145613380Y-103862190D02*
X144613380Y-103862190D01*
X144756238Y-103957428D01*
X144851476Y-104052666D01*
X144899095Y-104147904D01*
X144708619Y-103195523D02*
X144661000Y-103147904D01*
X144613380Y-103052666D01*
X144613380Y-102814571D01*
X144661000Y-102719333D01*
X144708619Y-102671714D01*
X144803857Y-102624095D01*
X144899095Y-102624095D01*
X145041952Y-102671714D01*
X145613380Y-103243142D01*
X145613380Y-102624095D01*
%TO.C,R7*%
X110815380Y-101258666D02*
X110339190Y-101592000D01*
X110815380Y-101830095D02*
X109815380Y-101830095D01*
X109815380Y-101449142D01*
X109863000Y-101353904D01*
X109910619Y-101306285D01*
X110005857Y-101258666D01*
X110148714Y-101258666D01*
X110243952Y-101306285D01*
X110291571Y-101353904D01*
X110339190Y-101449142D01*
X110339190Y-101830095D01*
X109815380Y-100925333D02*
X109815380Y-100258666D01*
X110815380Y-100687238D01*
%TO.C,R6*%
X124801333Y-97607380D02*
X124468000Y-97131190D01*
X124229904Y-97607380D02*
X124229904Y-96607380D01*
X124610857Y-96607380D01*
X124706095Y-96655000D01*
X124753714Y-96702619D01*
X124801333Y-96797857D01*
X124801333Y-96940714D01*
X124753714Y-97035952D01*
X124706095Y-97083571D01*
X124610857Y-97131190D01*
X124229904Y-97131190D01*
X125658476Y-96607380D02*
X125468000Y-96607380D01*
X125372761Y-96655000D01*
X125325142Y-96702619D01*
X125229904Y-96845476D01*
X125182285Y-97035952D01*
X125182285Y-97416904D01*
X125229904Y-97512142D01*
X125277523Y-97559761D01*
X125372761Y-97607380D01*
X125563238Y-97607380D01*
X125658476Y-97559761D01*
X125706095Y-97512142D01*
X125753714Y-97416904D01*
X125753714Y-97178809D01*
X125706095Y-97083571D01*
X125658476Y-97035952D01*
X125563238Y-96988333D01*
X125372761Y-96988333D01*
X125277523Y-97035952D01*
X125229904Y-97083571D01*
X125182285Y-97178809D01*
%TO.C,R5*%
X114387333Y-101036380D02*
X114054000Y-100560190D01*
X113815904Y-101036380D02*
X113815904Y-100036380D01*
X114196857Y-100036380D01*
X114292095Y-100084000D01*
X114339714Y-100131619D01*
X114387333Y-100226857D01*
X114387333Y-100369714D01*
X114339714Y-100464952D01*
X114292095Y-100512571D01*
X114196857Y-100560190D01*
X113815904Y-100560190D01*
X115292095Y-100036380D02*
X114815904Y-100036380D01*
X114768285Y-100512571D01*
X114815904Y-100464952D01*
X114911142Y-100417333D01*
X115149238Y-100417333D01*
X115244476Y-100464952D01*
X115292095Y-100512571D01*
X115339714Y-100607809D01*
X115339714Y-100845904D01*
X115292095Y-100941142D01*
X115244476Y-100988761D01*
X115149238Y-101036380D01*
X114911142Y-101036380D01*
X114815904Y-100988761D01*
X114768285Y-100941142D01*
%TO.C,J9*%
X98726666Y-88098380D02*
X98726666Y-88812666D01*
X98679047Y-88955523D01*
X98583809Y-89050761D01*
X98440952Y-89098380D01*
X98345714Y-89098380D01*
X99250476Y-89098380D02*
X99440952Y-89098380D01*
X99536190Y-89050761D01*
X99583809Y-89003142D01*
X99679047Y-88860285D01*
X99726666Y-88669809D01*
X99726666Y-88288857D01*
X99679047Y-88193619D01*
X99631428Y-88146000D01*
X99536190Y-88098380D01*
X99345714Y-88098380D01*
X99250476Y-88146000D01*
X99202857Y-88193619D01*
X99155238Y-88288857D01*
X99155238Y-88526952D01*
X99202857Y-88622190D01*
X99250476Y-88669809D01*
X99345714Y-88717428D01*
X99536190Y-88717428D01*
X99631428Y-88669809D01*
X99679047Y-88622190D01*
X99726666Y-88526952D01*
%TO.C,J6*%
X135302666Y-87844380D02*
X135302666Y-88558666D01*
X135255047Y-88701523D01*
X135159809Y-88796761D01*
X135016952Y-88844380D01*
X134921714Y-88844380D01*
X136207428Y-87844380D02*
X136016952Y-87844380D01*
X135921714Y-87892000D01*
X135874095Y-87939619D01*
X135778857Y-88082476D01*
X135731238Y-88272952D01*
X135731238Y-88653904D01*
X135778857Y-88749142D01*
X135826476Y-88796761D01*
X135921714Y-88844380D01*
X136112190Y-88844380D01*
X136207428Y-88796761D01*
X136255047Y-88749142D01*
X136302666Y-88653904D01*
X136302666Y-88415809D01*
X136255047Y-88320571D01*
X136207428Y-88272952D01*
X136112190Y-88225333D01*
X135921714Y-88225333D01*
X135826476Y-88272952D01*
X135778857Y-88320571D01*
X135731238Y-88415809D01*
%TO.C,J5*%
X149018666Y-87971380D02*
X149018666Y-88685666D01*
X148971047Y-88828523D01*
X148875809Y-88923761D01*
X148732952Y-88971380D01*
X148637714Y-88971380D01*
X149971047Y-87971380D02*
X149494857Y-87971380D01*
X149447238Y-88447571D01*
X149494857Y-88399952D01*
X149590095Y-88352333D01*
X149828190Y-88352333D01*
X149923428Y-88399952D01*
X149971047Y-88447571D01*
X150018666Y-88542809D01*
X150018666Y-88780904D01*
X149971047Y-88876142D01*
X149923428Y-88923761D01*
X149828190Y-88971380D01*
X149590095Y-88971380D01*
X149494857Y-88923761D01*
X149447238Y-88876142D01*
%TO.C,R4*%
X148573833Y-99969580D02*
X148240500Y-99493390D01*
X148002404Y-99969580D02*
X148002404Y-98969580D01*
X148383357Y-98969580D01*
X148478595Y-99017200D01*
X148526214Y-99064819D01*
X148573833Y-99160057D01*
X148573833Y-99302914D01*
X148526214Y-99398152D01*
X148478595Y-99445771D01*
X148383357Y-99493390D01*
X148002404Y-99493390D01*
X149430976Y-99302914D02*
X149430976Y-99969580D01*
X149192880Y-98921961D02*
X148954785Y-99636247D01*
X149573833Y-99636247D01*
%TO.C,J1*%
D14*
X178482171Y-78579980D02*
X178917600Y-78579980D01*
X179004685Y-78609008D01*
X179062742Y-78667065D01*
X179091771Y-78754151D01*
X179091771Y-78812208D01*
X179091771Y-77970380D02*
X179091771Y-78318722D01*
X179091771Y-78144551D02*
X178482171Y-78144551D01*
X178569257Y-78202608D01*
X178627314Y-78260665D01*
X178656342Y-78318722D01*
X179091771Y-84675980D02*
X178482171Y-84675980D01*
X178482171Y-84443751D01*
X178511200Y-84385694D01*
X178540228Y-84356665D01*
X178598285Y-84327637D01*
X178685371Y-84327637D01*
X178743428Y-84356665D01*
X178772457Y-84385694D01*
X178801485Y-84443751D01*
X178801485Y-84675980D01*
X178482171Y-83950265D02*
X178482171Y-83834151D01*
X178511200Y-83776094D01*
X178569257Y-83718037D01*
X178685371Y-83689008D01*
X178888571Y-83689008D01*
X179004685Y-83718037D01*
X179062742Y-83776094D01*
X179091771Y-83834151D01*
X179091771Y-83950265D01*
X179062742Y-84008322D01*
X179004685Y-84066380D01*
X178888571Y-84095408D01*
X178685371Y-84095408D01*
X178569257Y-84066380D01*
X178511200Y-84008322D01*
X178482171Y-83950265D01*
X178482171Y-83485808D02*
X179091771Y-83340665D01*
X178656342Y-83224551D01*
X179091771Y-83108437D01*
X178482171Y-82963294D01*
X178772457Y-82731065D02*
X178772457Y-82527865D01*
X179091771Y-82440780D02*
X179091771Y-82731065D01*
X178482171Y-82731065D01*
X178482171Y-82440780D01*
X179091771Y-81831180D02*
X178801485Y-82034380D01*
X179091771Y-82179522D02*
X178482171Y-82179522D01*
X178482171Y-81947294D01*
X178511200Y-81889237D01*
X178540228Y-81860208D01*
X178598285Y-81831180D01*
X178685371Y-81831180D01*
X178743428Y-81860208D01*
X178772457Y-81889237D01*
X178801485Y-81947294D01*
X178801485Y-82179522D01*
X179149828Y-81715065D02*
X179149828Y-81250608D01*
X178482171Y-80931294D02*
X178917600Y-80931294D01*
X179004685Y-80960322D01*
X179062742Y-81018380D01*
X179091771Y-81105465D01*
X179091771Y-81163522D01*
X178917600Y-80670037D02*
X178917600Y-80379751D01*
X179091771Y-80728094D02*
X178482171Y-80524894D01*
X179091771Y-80321694D01*
X179033714Y-79770151D02*
X179062742Y-79799180D01*
X179091771Y-79886265D01*
X179091771Y-79944322D01*
X179062742Y-80031408D01*
X179004685Y-80089465D01*
X178946628Y-80118494D01*
X178830514Y-80147522D01*
X178743428Y-80147522D01*
X178627314Y-80118494D01*
X178569257Y-80089465D01*
X178511200Y-80031408D01*
X178482171Y-79944322D01*
X178482171Y-79886265D01*
X178511200Y-79799180D01*
X178540228Y-79770151D01*
X179091771Y-79508894D02*
X178482171Y-79508894D01*
X179091771Y-79160551D02*
X178743428Y-79421808D01*
X178482171Y-79160551D02*
X178830514Y-79508894D01*
%TO.C,U2*%
D18*
X184975595Y-90511380D02*
X184975595Y-91320904D01*
X185023214Y-91416142D01*
X185070833Y-91463761D01*
X185166071Y-91511380D01*
X185356547Y-91511380D01*
X185451785Y-91463761D01*
X185499404Y-91416142D01*
X185547023Y-91320904D01*
X185547023Y-90511380D01*
X185975595Y-90606619D02*
X186023214Y-90559000D01*
X186118452Y-90511380D01*
X186356547Y-90511380D01*
X186451785Y-90559000D01*
X186499404Y-90606619D01*
X186547023Y-90701857D01*
X186547023Y-90797095D01*
X186499404Y-90939952D01*
X185927976Y-91511380D01*
X186547023Y-91511380D01*
%TO.C,U3*%
X172847095Y-90511380D02*
X172847095Y-91320904D01*
X172894714Y-91416142D01*
X172942333Y-91463761D01*
X173037571Y-91511380D01*
X173228047Y-91511380D01*
X173323285Y-91463761D01*
X173370904Y-91416142D01*
X173418523Y-91320904D01*
X173418523Y-90511380D01*
X173799476Y-90511380D02*
X174418523Y-90511380D01*
X174085190Y-90892333D01*
X174228047Y-90892333D01*
X174323285Y-90939952D01*
X174370904Y-90987571D01*
X174418523Y-91082809D01*
X174418523Y-91320904D01*
X174370904Y-91416142D01*
X174323285Y-91463761D01*
X174228047Y-91511380D01*
X173942333Y-91511380D01*
X173847095Y-91463761D01*
X173799476Y-91416142D01*
%TD*%
M02*
