%TF.GenerationSoftware,KiCad,Pcbnew,(5.1.9)-1*%
%TF.CreationDate,2021-07-08T16:45:59-05:00*%
%TF.ProjectId,RPi_Zero_pHat_Template,5250695f-5a65-4726-9f5f-704861745f54,rev?*%
%TF.SameCoordinates,Original*%
%TF.FileFunction,Soldermask,Bot*%
%TF.FilePolarity,Negative*%
%FSLAX46Y46*%
G04 Gerber Fmt 4.6, Leading zero omitted, Abs format (unit mm)*
G04 Created by KiCad (PCBNEW (5.1.9)-1) date 2021-07-08 16:45:59*
%MOMM*%
%LPD*%
G01*
G04 APERTURE LIST*
%TA.AperFunction,Profile*%
%ADD10C,0.150000*%
%TD*%
%ADD11C,6.200000*%
%ADD12C,1.397000*%
%ADD13C,3.251200*%
%ADD14O,1.700000X1.700000*%
%ADD15R,1.700000X1.700000*%
%ADD16C,3.500000*%
%ADD17C,2.000000*%
%ADD18C,2.600000*%
%ADD19R,2.600000X2.600000*%
%ADD20C,4.521200*%
%ADD21R,2.000000X2.000000*%
G04 APERTURE END LIST*
D10*
X197750000Y-125046000D02*
X197750000Y-83546000D01*
X189750000Y-83546000D02*
X197750000Y-83546000D01*
X189750000Y-83546000D02*
X189750000Y-75546000D01*
X197750000Y-125046000D02*
X189750000Y-125046000D01*
X189750000Y-133046000D02*
X189750000Y-125046000D01*
X97750000Y-133046000D02*
X189750000Y-133046000D01*
X97750000Y-125046000D02*
X97750000Y-133046000D01*
X97750000Y-125046000D02*
X89750000Y-125046000D01*
X89750000Y-125046000D02*
X89750000Y-83546000D01*
X89750000Y-83546000D02*
X97750000Y-83546000D01*
X97750000Y-75546000D02*
X97750000Y-83546000D01*
X97750000Y-75546000D02*
X189750000Y-75546000D01*
D11*
%TO.C,*%
X185760000Y-106105000D03*
%TD*%
%TO.C,*%
X127760000Y-129105000D03*
%TD*%
D12*
%TO.C,J4*%
X96131000Y-111252000D03*
X98671000Y-109982000D03*
X96131000Y-108712000D03*
D13*
X93611000Y-114935000D03*
D12*
X98671000Y-107442000D03*
D13*
X93611000Y-103759000D03*
%TD*%
D12*
%TO.C,J3*%
X96131000Y-96139000D03*
X98671000Y-94869000D03*
X96131000Y-93599000D03*
D13*
X93611000Y-99822000D03*
D12*
X98671000Y-92329000D03*
D13*
X93611000Y-88646000D03*
%TD*%
D14*
%TO.C,J10*%
X117233700Y-130149600D03*
X114693700Y-130149600D03*
X112153700Y-130149600D03*
X109613700Y-130149600D03*
X107073700Y-130149600D03*
D15*
X104533700Y-130149600D03*
%TD*%
D16*
%TO.C,H3*%
X105000000Y-122546000D03*
%TD*%
D17*
%TO.C,SW2*%
X98244800Y-118313200D03*
X98244800Y-122813200D03*
X91744800Y-118313200D03*
X91744800Y-122813200D03*
%TD*%
D14*
%TO.C,J11*%
X135166100Y-125285500D03*
D15*
X132626100Y-125285500D03*
%TD*%
D14*
%TO.C,J12*%
X121907300Y-115379500D03*
X121907300Y-117919500D03*
D15*
X121907300Y-120459500D03*
%TD*%
D14*
%TO.C,J2*%
X132630000Y-130375000D03*
X132630000Y-127835000D03*
X135170000Y-130375000D03*
X135170000Y-127835000D03*
X137710000Y-130375000D03*
X137710000Y-127835000D03*
X140250000Y-130375000D03*
X140250000Y-127835000D03*
X142790000Y-130375000D03*
X142790000Y-127835000D03*
X145330000Y-130375000D03*
X145330000Y-127835000D03*
X147870000Y-130375000D03*
X147870000Y-127835000D03*
X150410000Y-130375000D03*
X150410000Y-127835000D03*
X152950000Y-130375000D03*
X152950000Y-127835000D03*
X155490000Y-130375000D03*
X155490000Y-127835000D03*
X158030000Y-130375000D03*
X158030000Y-127835000D03*
X160570000Y-130375000D03*
X160570000Y-127835000D03*
X163110000Y-130375000D03*
X163110000Y-127835000D03*
X165650000Y-130375000D03*
X165650000Y-127835000D03*
X168190000Y-130375000D03*
X168190000Y-127835000D03*
X170730000Y-130375000D03*
X170730000Y-127835000D03*
X173270000Y-130375000D03*
X173270000Y-127835000D03*
X175810000Y-130375000D03*
X175810000Y-127835000D03*
X178350000Y-130375000D03*
X178350000Y-127835000D03*
X180890000Y-130375000D03*
D15*
X180890000Y-127835000D03*
%TD*%
D17*
%TO.C,SW1*%
X113091100Y-109499400D03*
X113091100Y-113999400D03*
X106591100Y-109499400D03*
X106591100Y-113999400D03*
%TD*%
D16*
%TO.C,H2*%
X182500000Y-86046000D03*
%TD*%
D18*
%TO.C,J8*%
X125374400Y-82245200D03*
D19*
X130454400Y-82245200D03*
%TD*%
D18*
%TO.C,J7*%
X113487200Y-82245200D03*
D19*
X118567200Y-82245200D03*
%TD*%
D18*
%TO.C,J9*%
X101422200Y-82245200D03*
D19*
X106502200Y-82245200D03*
%TD*%
D18*
%TO.C,J6*%
X137795000Y-82245200D03*
D19*
X142875000Y-82245200D03*
%TD*%
D18*
%TO.C,J5*%
X150495000Y-82245200D03*
D19*
X155575000Y-82245200D03*
%TD*%
D20*
%TO.C,J1*%
X173736000Y-86233000D03*
X169037000Y-83233260D03*
X173736000Y-80233520D03*
%TD*%
D17*
%TO.C,U2*%
X179324000Y-98933000D03*
X181864000Y-98933000D03*
D21*
X184404000Y-98933000D03*
%TD*%
D17*
%TO.C,U3*%
X166116000Y-99060000D03*
X168656000Y-99060000D03*
D21*
X171196000Y-99060000D03*
%TD*%
M02*
